<svg id="enrichment_category_graph_svg" height="368.39952pt" version="1.1" viewBox="0 0 659.39976 368.39952" width="659.39976pt" xmlns="http://www.w3.org/2000/svg" xmlns:xlink="http://www.w3.org/1999/xlink">
 <metadata>
  <rdf:rdf xmlns:cc="http://creativecommons.org/ns#" xmlns:dc="http://purl.org/dc/elements/1.1/" xmlns:rdf="http://www.w3.org/1999/02/22-rdf-syntax-ns#">
   <cc:work>
    <dc:type rdf:resource="http://purl.org/dc/dcmitype/StillImage"/>
    <dc:date>2025-09-30T15:01:43.429698</dc:date>
    <dc:format>image/svg+xml</dc:format>
    <dc:creator>
     <cc:agent>
      <dc:title>Matplotlib v3.4.2, https://matplotlib.org/</dc:title>
     </cc:agent>
    </dc:creator>
   </cc:work>
  </rdf:rdf>
 </metadata>
 <defs>
  <style type="text/css">*{stroke-linecap:butt;stroke-linejoin:round;}</style>
 </defs>
 <g id="figure_1">
  <g id="patch_1">
   <path d="M 0 368.39952 &#xA;L 659.39976 368.39952 &#xA;L 659.39976 0 &#xA;L 0 0 &#xA;z&#xA;" style="fill:none;"/>
  </g>
  <g id="axes_1">
   <g id="patch_2">
    <path d="M 139.779687 337.022801 &#xA;L 542.131553 337.022801 &#xA;L 542.131553 21.207656 &#xA;L 139.779687 21.207656 &#xA;z&#xA;" style="fill:none;"/>
   </g>
   <g id="matplotlib.axis_1">
    <g id="xtick_1">
     <g id="line2d_1">
      <path clip-path="url(#p4b9dc70598)" d="M 193.081587 337.022801 &#xA;L 193.081587 21.207656 &#xA;" style="fill:none;stroke:#d3d3d3;stroke-dasharray:2.22,0.96;stroke-dashoffset:0;stroke-width:0.6;"/>
     </g>
     <g id="line2d_2"/>
     <g id="text_1">
      <text style="font-family:Arial;font-size:9px;font-stretch:normal;font-style:normal;font-weight:normal;text-anchor:middle;" transform="rotate(-0, 193.081587, 346.964832)" x="193.081587" y="346.964832">6</text>
     </g>
    </g>
    <g id="xtick_2">
     <g id="line2d_3">
      <path clip-path="url(#p4b9dc70598)" d="M 246.902891 337.022801 &#xA;L 246.902891 21.207656 &#xA;" style="fill:none;stroke:#d3d3d3;stroke-dasharray:2.22,0.96;stroke-dashoffset:0;stroke-width:0.6;"/>
     </g>
     <g id="line2d_4"/>
     <g id="text_2">
      <text style="font-family:Arial;font-size:9px;font-stretch:normal;font-style:normal;font-weight:normal;text-anchor:middle;" transform="rotate(-0, 246.902891, 346.964832)" x="246.902891" y="346.964832">8</text>
     </g>
    </g>
    <g id="xtick_3">
     <g id="line2d_5">
      <path clip-path="url(#p4b9dc70598)" d="M 300.724196 337.022801 &#xA;L 300.724196 21.207656 &#xA;" style="fill:none;stroke:#d3d3d3;stroke-dasharray:2.22,0.96;stroke-dashoffset:0;stroke-width:0.6;"/>
     </g>
     <g id="line2d_6"/>
     <g id="text_3">
      <text style="font-family:Arial;font-size:9px;font-stretch:normal;font-style:normal;font-weight:normal;text-anchor:middle;" transform="rotate(-0, 300.724196, 346.964832)" x="300.724196" y="346.964832">10</text>
     </g>
    </g>
    <g id="xtick_4">
     <g id="line2d_7">
      <path clip-path="url(#p4b9dc70598)" d="M 354.5455 337.022801 &#xA;L 354.5455 21.207656 &#xA;" style="fill:none;stroke:#d3d3d3;stroke-dasharray:2.22,0.96;stroke-dashoffset:0;stroke-width:0.6;"/>
     </g>
     <g id="line2d_8"/>
     <g id="text_4">
      <text style="font-family:Arial;font-size:9px;font-stretch:normal;font-style:normal;font-weight:normal;text-anchor:middle;" transform="rotate(-0, 354.5455, 346.964832)" x="354.5455" y="346.964832">12</text>
     </g>
    </g>
    <g id="xtick_5">
     <g id="line2d_9">
      <path clip-path="url(#p4b9dc70598)" d="M 408.366804 337.022801 &#xA;L 408.366804 21.207656 &#xA;" style="fill:none;stroke:#d3d3d3;stroke-dasharray:2.22,0.96;stroke-dashoffset:0;stroke-width:0.6;"/>
     </g>
     <g id="line2d_10"/>
     <g id="text_5">
      <text style="font-family:Arial;font-size:9px;font-stretch:normal;font-style:normal;font-weight:normal;text-anchor:middle;" transform="rotate(-0, 408.366804, 346.964832)" x="408.366804" y="346.964832">14</text>
     </g>
    </g>
    <g id="xtick_6">
     <g id="line2d_11">
      <path clip-path="url(#p4b9dc70598)" d="M 462.188108 337.022801 &#xA;L 462.188108 21.207656 &#xA;" style="fill:none;stroke:#d3d3d3;stroke-dasharray:2.22,0.96;stroke-dashoffset:0;stroke-width:0.6;"/>
     </g>
     <g id="line2d_12"/>
     <g id="text_6">
      <text style="font-family:Arial;font-size:9px;font-stretch:normal;font-style:normal;font-weight:normal;text-anchor:middle;" transform="rotate(-0, 462.188108, 346.964832)" x="462.188108" y="346.964832">16</text>
     </g>
    </g>
    <g id="xtick_7">
     <g id="line2d_13">
      <path clip-path="url(#p4b9dc70598)" d="M 516.009412 337.022801 &#xA;L 516.009412 21.207656 &#xA;" style="fill:none;stroke:#d3d3d3;stroke-dasharray:2.22,0.96;stroke-dashoffset:0;stroke-width:0.6;"/>
     </g>
     <g id="line2d_14"/>
     <g id="text_7">
      <text style="font-family:Arial;font-size:9px;font-stretch:normal;font-style:normal;font-weight:normal;text-anchor:middle;" transform="rotate(-0, 516.009412, 346.964832)" x="516.009412" y="346.964832">18</text>
     </g>
    </g>
    <g id="text_8">
     <text style="font-family:Arial;font-size:9px;font-stretch:normal;font-style:normal;font-weight:normal;text-anchor:middle;" transform="rotate(-0, 340.95562, 359.305301)" x="340.95562" y="359.305301">Signal</text>
    </g>
   </g>
   <g id="matplotlib.axis_2">
    <g id="ytick_1">
     <g id="line2d_15"/>
     <g id="text_9">
      <text style="font-family:Arial;font-size:9px;font-stretch:normal;font-style:normal;font-weight:normal;text-anchor:end;" transform="rotate(-0, 136.279687, 53.193983)" x="136.279687" y="53.193983">ECM-receptor interaction</text>
     </g>
    </g>
    <g id="ytick_2">
     <g id="line2d_16"/>
     <g id="text_10">
      <text style="font-family:Arial;font-size:9px;font-stretch:normal;font-style:normal;font-weight:normal;text-anchor:end;" transform="rotate(-0, 136.279687, 81.849607)" x="136.279687" y="81.849607">Focal adhesion</text>
     </g>
    </g>
    <g id="ytick_3">
     <g id="line2d_17"/>
     <g id="text_11">
      <text style="font-family:Arial;font-size:9px;font-stretch:normal;font-style:normal;font-weight:normal;text-anchor:end;" transform="rotate(-0, 136.279687, 110.614919)" x="136.279687" y="110.614919">Human papillomavirus infection</text>
     </g>
    </g>
    <g id="ytick_4">
     <g id="line2d_18"/>
     <g id="text_12">
      <text style="font-family:Arial;font-size:9px;font-stretch:normal;font-style:normal;font-weight:normal;text-anchor:end;" transform="rotate(-0, 136.279687, 139.283902)" x="136.279687" y="139.283902">PI3K-Akt signaling pathway</text>
     </g>
    </g>
    <g id="ytick_5">
     <g id="line2d_19"/>
     <g id="text_13">
      <text style="font-family:Arial;font-size:9px;font-stretch:normal;font-style:normal;font-weight:normal;text-anchor:end;" transform="rotate(-0, 136.279687, 168.035854)" x="136.279687" y="168.035854">Small cell lung cancer</text>
     </g>
    </g>
    <g id="ytick_6">
     <g id="line2d_20"/>
     <g id="text_14">
      <text style="font-family:Arial;font-size:9px;font-stretch:normal;font-style:normal;font-weight:normal;" transform="translate(9.237656 192.523353)">Arrhythmogenic right ventricular</text>
      <text style="font-family:Arial;font-size:9px;font-stretch:normal;font-style:normal;font-weight:normal;" transform="translate(72.752344 202.148009)">cardiomyopathy</text>
     </g>
    </g>
    <g id="ytick_7">
     <g id="line2d_21"/>
     <g id="text_15">
      <text style="font-family:Arial;font-size:9px;font-stretch:normal;font-style:normal;font-weight:normal;text-anchor:end;" transform="rotate(-0, 136.279687, 225.401946)" x="136.279687" y="225.401946">Hypertrophic cardiomyopathy</text>
     </g>
    </g>
    <g id="ytick_8">
     <g id="line2d_22"/>
     <g id="text_16">
      <text style="font-family:Arial;font-size:9px;font-stretch:normal;font-style:normal;font-weight:normal;text-anchor:end;" transform="rotate(-0, 136.279687, 254.112414)" x="136.279687" y="254.112414">Dilated cardiomyopathy</text>
     </g>
    </g>
    <g id="ytick_9">
     <g id="line2d_23"/>
     <g id="text_17">
      <text style="font-family:Arial;font-size:9px;font-stretch:normal;font-style:normal;font-weight:normal;text-anchor:end;" transform="rotate(-0, 136.279687, 282.822881)" x="136.279687" y="282.822881">Amoebiasis</text>
     </g>
    </g>
    <g id="ytick_10">
     <g id="line2d_24"/>
     <g id="text_18">
      <text style="font-family:Arial;font-size:9px;font-stretch:normal;font-style:normal;font-weight:normal;text-anchor:end;" transform="rotate(-0, 136.279687, 311.533349)" x="136.279687" y="311.533349">Protein digestion and absorption</text>
     </g>
    </g>
   </g>
   <g id="patch_3">
    <path clip-path="url(#p4b9dc70598)" d="M 139.779687 294.531309 &#xA;L 542.131553 294.531309 &#xA;L 542.131553 320.37073 &#xA;L 139.779687 320.37073 &#xA;z&#xA;" style="fill:#234da0;opacity:0.1;"/>
   </g>
   <g id="patch_4">
    <path clip-path="url(#p4b9dc70598)" d="M 139.779687 265.820841 &#xA;L 542.131553 265.820841 &#xA;L 542.131553 291.660262 &#xA;L 139.779687 291.660262 &#xA;z&#xA;" style="fill:#1f7ab5;opacity:0.1;"/>
   </g>
   <g id="patch_5">
    <path clip-path="url(#p4b9dc70598)" d="M 139.779687 179.689438 &#xA;L 542.131553 179.689438 &#xA;L 542.131553 262.949795 &#xA;L 139.779687 262.949795 &#xA;z&#xA;" style="fill:#1f7ab5;opacity:0.1;"/>
   </g>
   <g id="patch_6">
    <path clip-path="url(#p4b9dc70598)" d="M 139.779687 150.97897 &#xA;L 542.131553 150.97897 &#xA;L 542.131553 176.818391 &#xA;L 139.779687 176.818391 &#xA;z&#xA;" style="fill:#1f7ab5;opacity:0.1;"/>
   </g>
   <g id="patch_7">
    <path clip-path="url(#p4b9dc70598)" d="M 139.779687 36.137099 &#xA;L 542.131553 36.137099 &#xA;L 542.131553 148.107924 &#xA;L 139.779687 148.107924 &#xA;z&#xA;" style="fill:#d6efb3;opacity:0.1;"/>
   </g>
   <g id="horizontalLine_KEGG:hsa04512">
    <path data-original-stroke="grey" clip-path="url(#p4b9dc70598)" d="M 139.779687 49.918124 &#xA;L 520.85333 49.918124 &#xA;" style="fill:none;stroke:#d6efb3;stroke-linecap:square;stroke-width:3;"/>
   </g>
   <g id="horizontalLine_KEGG:hsa04510">
    <path data-original-stroke="grey" clip-path="url(#p4b9dc70598)" d="M 139.779687 78.628592 &#xA;L 385.223643 78.628592 &#xA;" style="fill:none;stroke:#d6efb3;stroke-linecap:square;stroke-width:3;"/>
   </g>
   <g id="horizontalLine_KEGG:hsa05165">
    <path data-original-stroke="grey" clip-path="url(#p4b9dc70598)" d="M 139.779687 107.339059 &#xA;L 262.51107 107.339059 &#xA;" style="fill:none;stroke:#a0dab8;stroke-linecap:square;stroke-width:3;"/>
   </g>
   <g id="horizontalLine_KEGG:hsa04151">
    <path data-original-stroke="grey" clip-path="url(#p4b9dc70598)" d="M 139.779687 136.049527 &#xA;L 250.401276 136.049527 &#xA;" style="fill:none;stroke:#5fc1c0;stroke-linecap:square;stroke-width:3;"/>
   </g>
   <g id="horizontalLine_KEGG:hsa05222">
    <path data-original-stroke="grey" clip-path="url(#p4b9dc70598)" d="M 139.779687 164.759995 &#xA;L 260.358217 164.759995 &#xA;" style="fill:none;stroke:#1f7ab5;stroke-linecap:square;stroke-width:3;"/>
   </g>
   <g id="horizontalLine_KEGG:hsa05412">
    <path data-original-stroke="grey" clip-path="url(#p4b9dc70598)" d="M 139.779687 193.470463 &#xA;L 254.168767 193.470463 &#xA;" style="fill:none;stroke:#1f7ab5;stroke-linecap:square;stroke-width:3;"/>
   </g>
   <g id="horizontalLine_KEGG:hsa05410">
    <path data-original-stroke="grey" clip-path="url(#p4b9dc70598)" d="M 139.779687 222.18093 &#xA;L 240.713441 222.18093 &#xA;" style="fill:none;stroke:#1f7ab5;stroke-linecap:square;stroke-width:3;"/>
   </g>
   <g id="horizontalLine_KEGG:hsa05414">
    <path data-original-stroke="grey" clip-path="url(#p4b9dc70598)" d="M 139.779687 250.891398 &#xA;L 234.523991 250.891398 &#xA;" style="fill:none;stroke:#1f7ab5;stroke-linecap:square;stroke-width:3;"/>
   </g>
   <g id="horizontalLine_KEGG:hsa05146">
    <path data-original-stroke="grey" clip-path="url(#p4b9dc70598)" d="M 139.779687 279.601866 &#xA;L 227.527222 279.601866 &#xA;" style="fill:none;stroke:#1f7ab5;stroke-linecap:square;stroke-width:3;"/>
   </g>
   <g id="horizontalLine_KEGG:hsa04974">
    <path data-original-stroke="grey" clip-path="url(#p4b9dc70598)" d="M 139.779687 308.312334 &#xA;L 161.057911 308.312334 &#xA;" style="fill:none;stroke:#234da0;stroke-linecap:square;stroke-width:3;"/>
   </g>
   <g id="line2d_25">
    <path clip-path="url(#p4b9dc70598)" d="M 139.779687 49.918124 &#xA;L 520.85333 49.918124 &#xA;" style="fill:none;stroke:#ffffff;stroke-linecap:square;stroke-opacity:0.4;stroke-width:3;"/>
   </g>
   <g id="line2d_26">
    <path clip-path="url(#p4b9dc70598)" d="M 139.779687 78.628592 &#xA;L 385.223643 78.628592 &#xA;" style="fill:none;stroke:#ffffff;stroke-linecap:square;stroke-opacity:0.4;stroke-width:3;"/>
   </g>
   <g id="line2d_27">
    <path clip-path="url(#p4b9dc70598)" d="M 139.779687 107.339059 &#xA;L 262.51107 107.339059 &#xA;" style="fill:none;stroke:#ffffff;stroke-linecap:square;stroke-opacity:0.4;stroke-width:3;"/>
   </g>
   <g id="line2d_28">
    <path clip-path="url(#p4b9dc70598)" d="M 139.779687 136.049527 &#xA;L 250.401276 136.049527 &#xA;" style="fill:none;stroke:#ffffff;stroke-linecap:square;stroke-opacity:0.4;stroke-width:3;"/>
   </g>
   <g id="line2d_29">
    <path clip-path="url(#p4b9dc70598)" d="M 139.779687 164.759995 &#xA;L 260.358217 164.759995 &#xA;" style="fill:none;stroke:#ffffff;stroke-linecap:square;stroke-opacity:0.4;stroke-width:3;"/>
   </g>
   <g id="line2d_30">
    <path clip-path="url(#p4b9dc70598)" d="M 139.779687 193.470463 &#xA;L 254.168767 193.470463 &#xA;" style="fill:none;stroke:#ffffff;stroke-linecap:square;stroke-opacity:0.4;stroke-width:3;"/>
   </g>
   <g id="line2d_31">
    <path clip-path="url(#p4b9dc70598)" d="M 139.779687 222.18093 &#xA;L 240.713441 222.18093 &#xA;" style="fill:none;stroke:#ffffff;stroke-linecap:square;stroke-opacity:0.4;stroke-width:3;"/>
   </g>
   <g id="line2d_32">
    <path clip-path="url(#p4b9dc70598)" d="M 139.779687 250.891398 &#xA;L 234.523991 250.891398 &#xA;" style="fill:none;stroke:#ffffff;stroke-linecap:square;stroke-opacity:0.4;stroke-width:3;"/>
   </g>
   <g id="line2d_33">
    <path clip-path="url(#p4b9dc70598)" d="M 139.779687 279.601866 &#xA;L 227.527222 279.601866 &#xA;" style="fill:none;stroke:#ffffff;stroke-linecap:square;stroke-opacity:0.4;stroke-width:3;"/>
   </g>
   <g id="line2d_34">
    <path clip-path="url(#p4b9dc70598)" d="M 139.779687 308.312334 &#xA;L 161.057911 308.312334 &#xA;" style="fill:none;stroke:#ffffff;stroke-linecap:square;stroke-opacity:0.4;stroke-width:3;"/>
   </g>
   <g id="dots_plot">
    <path id="circle_KEGG:hsa04512" data-original-stroke="grey" clip-path="url(#p4b9dc70598)" d="M 520.85333 61.626957 &#xA;C 523.958549 61.626957 526.937004 60.393241 529.132725 58.197519 &#xA;C 531.328446 56.001798 532.562163 53.023343 532.562163 49.918124 &#xA;C 532.562163 46.812905 531.328446 43.83445 529.132725 41.638729 &#xA;C 526.937004 39.443007 523.958549 38.209291 520.85333 38.209291 &#xA;C 517.748111 38.209291 514.769656 39.443007 512.573934 41.638729 &#xA;C 510.378213 43.83445 509.144497 46.812905 509.144497 49.918124 &#xA;C 509.144497 53.023343 510.378213 56.001798 512.573934 58.197519 &#xA;C 514.769656 60.393241 517.748111 61.626957 520.85333 61.626957 &#xA;z&#xA;" style="fill:#d6efb3;stroke:#d6efb3;stroke-width:2.2;"/>
    <path id="circle_KEGG:hsa04510" data-original-stroke="grey" clip-path="url(#p4b9dc70598)" d="M 385.223643 90.87604 &#xA;C 388.471705 90.87604 391.587171 89.585572 393.883897 87.288846 &#xA;C 396.180623 84.99212 397.471092 81.876653 397.471092 78.628592 &#xA;C 397.471092 75.38053 396.180623 72.265064 393.883897 69.968338 &#xA;C 391.587171 67.671611 388.471705 66.381143 385.223643 66.381143 &#xA;C 381.975582 66.381143 378.860115 67.671611 376.563389 69.968338 &#xA;C 374.266663 72.265064 372.976194 75.38053 372.976194 78.628592 &#xA;C 372.976194 81.876653 374.266663 84.99212 376.563389 87.288846 &#xA;C 378.860115 89.585572 381.975582 90.87604 385.223643 90.87604 &#xA;z&#xA;" style="fill:#d6efb3;stroke:#d6efb3;stroke-width:2.2;"/>
    <path id="circle_KEGG:hsa05165" data-original-stroke="grey" clip-path="url(#p4b9dc70598)" d="M 262.51107 119.184843 &#xA;C 265.652608 119.184843 268.6659 117.936696 270.887303 115.715293 &#xA;C 273.108706 113.49389 274.356853 110.480598 274.356853 107.339059 &#xA;C 274.356853 104.197521 273.108706 101.184229 270.887303 98.962826 &#xA;C 268.6659 96.741423 265.652608 95.493276 262.51107 95.493276 &#xA;C 259.369531 95.493276 256.356239 96.741423 254.134836 98.962826 &#xA;C 251.913433 101.184229 250.665286 104.197521 250.665286 107.339059 &#xA;C 250.665286 110.480598 251.913433 113.49389 254.134836 115.715293 &#xA;C 256.356239 117.936696 259.369531 119.184843 262.51107 119.184843 &#xA;z&#xA;" style="fill:#a0dab8;stroke:#a0dab8;stroke-width:2.2;"/>
    <path id="circle_KEGG:hsa04151" data-original-stroke="grey" clip-path="url(#p4b9dc70598)" d="M 250.401276 147.89531 &#xA;C 253.542815 147.89531 256.556107 146.647164 258.77751 144.425761 &#xA;C 260.998913 142.204358 262.247059 139.191066 262.247059 136.049527 &#xA;C 262.247059 132.907989 260.998913 129.894697 258.77751 127.673293 &#xA;C 256.556107 125.45189 253.542815 124.203744 250.401276 124.203744 &#xA;C 247.259738 124.203744 244.246446 125.45189 242.025043 127.673293 &#xA;C 239.803639 129.894697 238.555493 132.907989 238.555493 136.049527 &#xA;C 238.555493 139.191066 239.803639 142.204358 242.025043 144.425761 &#xA;C 244.246446 146.647164 247.259738 147.89531 250.401276 147.89531 &#xA;z&#xA;" style="fill:#5fc1c0;stroke:#5fc1c0;stroke-width:2.2;"/>
    <path id="circle_KEGG:hsa05222" data-original-stroke="grey" clip-path="url(#p4b9dc70598)" d="M 260.358217 173.466685 &#xA;C 262.667259 173.466685 264.882038 172.549293 266.514777 170.916554 &#xA;C 268.147516 169.283816 269.064907 167.069036 269.064907 164.759995 &#xA;C 269.064907 162.450954 268.147516 160.236174 266.514777 158.603435 &#xA;C 264.882038 156.970697 262.667259 156.053305 260.358217 156.053305 &#xA;C 258.049176 156.053305 255.834397 156.970697 254.201658 158.603435 &#xA;C 252.568919 160.236174 251.651527 162.450954 251.651527 164.759995 &#xA;C 251.651527 167.069036 252.568919 169.283816 254.201658 170.916554 &#xA;C 255.834397 172.549293 258.049176 173.466685 260.358217 173.466685 &#xA;z&#xA;" style="fill:#1f7ab5;stroke:#1f7ab5;stroke-width:2.2;"/>
    <path id="circle_KEGG:hsa05412" data-original-stroke="grey" clip-path="url(#p4b9dc70598)" d="M 254.168767 201.798418 &#xA;C 256.377367 201.798418 258.495805 200.920932 260.057521 199.359216 &#xA;C 261.619237 197.797501 262.496723 195.679062 262.496723 193.470463 &#xA;C 262.496723 191.261863 261.619237 189.143425 260.057521 187.581709 &#xA;C 258.495805 186.019993 256.377367 185.142507 254.168767 185.142507 &#xA;C 251.960168 185.142507 249.84173 186.019993 248.280014 187.581709 &#xA;C 246.718298 189.143425 245.840812 191.261863 245.840812 193.470463 &#xA;C 245.840812 195.679062 246.718298 197.797501 248.280014 199.359216 &#xA;C 249.84173 200.920932 251.960168 201.798418 254.168767 201.798418 &#xA;z&#xA;" style="fill:#1f7ab5;stroke:#1f7ab5;stroke-width:2.2;"/>
    <path id="circle_KEGG:hsa05410" data-original-stroke="grey" clip-path="url(#p4b9dc70598)" d="M 240.713441 230.508886 &#xA;C 242.922041 230.508886 245.040479 229.6314 246.602195 228.069684 &#xA;C 248.163911 226.507968 249.041397 224.38953 249.041397 222.18093 &#xA;C 249.041397 219.972331 248.163911 217.853892 246.602195 216.292177 &#xA;C 245.040479 214.730461 242.922041 213.852975 240.713441 213.852975 &#xA;C 238.504842 213.852975 236.386403 214.730461 234.824688 216.292177 &#xA;C 233.262972 217.853892 232.385486 219.972331 232.385486 222.18093 &#xA;C 232.385486 224.38953 233.262972 226.507968 234.824688 228.069684 &#xA;C 236.386403 229.6314 238.504842 230.508886 240.713441 230.508886 &#xA;z&#xA;" style="fill:#1f7ab5;stroke:#1f7ab5;stroke-width:2.2;"/>
    <path id="circle_KEGG:hsa05414" data-original-stroke="grey" clip-path="url(#p4b9dc70598)" d="M 234.523991 259.219353 &#xA;C 236.732591 259.219353 238.851029 258.341867 240.412745 256.780152 &#xA;C 241.974461 255.218436 242.851947 253.099998 242.851947 250.891398 &#xA;C 242.851947 248.682799 241.974461 246.56436 240.412745 245.002644 &#xA;C 238.851029 243.440929 236.732591 242.563443 234.523991 242.563443 &#xA;C 232.315392 242.563443 230.196954 243.440929 228.635238 245.002644 &#xA;C 227.073522 246.56436 226.196036 248.682799 226.196036 250.891398 &#xA;C 226.196036 253.099998 227.073522 255.218436 228.635238 256.780152 &#xA;C 230.196954 258.341867 232.315392 259.219353 234.523991 259.219353 &#xA;z&#xA;" style="fill:#1f7ab5;stroke:#1f7ab5;stroke-width:2.2;"/>
    <path id="circle_KEGG:hsa05146" data-original-stroke="grey" clip-path="url(#p4b9dc70598)" d="M 227.527222 287.929821 &#xA;C 229.735821 287.929821 231.85426 287.052335 233.415976 285.490619 &#xA;C 234.977691 283.928904 235.855177 281.810465 235.855177 279.601866 &#xA;C 235.855177 277.393266 234.977691 275.274828 233.415976 273.713112 &#xA;C 231.85426 272.151396 229.735821 271.273911 227.527222 271.273911 &#xA;C 225.318622 271.273911 223.200184 272.151396 221.638468 273.713112 &#xA;C 220.076753 275.274828 219.199267 277.393266 219.199267 279.601866 &#xA;C 219.199267 281.810465 220.076753 283.928904 221.638468 285.490619 &#xA;C 223.200184 287.052335 225.318622 287.929821 227.527222 287.929821 &#xA;z&#xA;" style="fill:#1f7ab5;stroke:#1f7ab5;stroke-width:2.2;"/>
    <path id="circle_KEGG:hsa04974" data-original-stroke="grey" clip-path="url(#p4b9dc70598)" d="M 161.057911 315.383401 &#xA;C 162.93318 315.383401 164.731896 314.638349 166.057911 313.312334 &#xA;C 167.383927 311.986318 168.128979 310.187603 168.128979 308.312334 &#xA;C 168.128979 306.437064 167.383927 304.638349 166.057911 303.312334 &#xA;C 164.731896 301.986318 162.93318 301.241266 161.057911 301.241266 &#xA;C 159.182642 301.241266 157.383927 301.986318 156.057911 303.312334 &#xA;C 154.731896 304.638349 153.986843 306.437064 153.986843 308.312334 &#xA;C 153.986843 310.187603 154.731896 311.986318 156.057911 313.312334 &#xA;C 157.383927 314.638349 159.182642 315.383401 161.057911 315.383401 &#xA;z&#xA;" style="fill:#234da0;stroke:#234da0;stroke-width:2.2;"/>
   </g>
   <g id="PathCollection_1">
    <path clip-path="url(#p4b9dc70598)" d="M 520.85333 61.626957 &#xA;C 523.958549 61.626957 526.937004 60.393241 529.132725 58.197519 &#xA;C 531.328446 56.001798 532.562163 53.023343 532.562163 49.918124 &#xA;C 532.562163 46.812905 531.328446 43.83445 529.132725 41.638729 &#xA;C 526.937004 39.443007 523.958549 38.209291 520.85333 38.209291 &#xA;C 517.748111 38.209291 514.769656 39.443007 512.573934 41.638729 &#xA;C 510.378213 43.83445 509.144497 46.812905 509.144497 49.918124 &#xA;C 509.144497 53.023343 510.378213 56.001798 512.573934 58.197519 &#xA;C 514.769656 60.393241 517.748111 61.626957 520.85333 61.626957 &#xA;z&#xA;" style="fill:none;stroke:#808080;stroke-opacity:0.45;stroke-width:2.2;"/>
    <path clip-path="url(#p4b9dc70598)" d="M 385.223643 90.87604 &#xA;C 388.471705 90.87604 391.587171 89.585572 393.883897 87.288846 &#xA;C 396.180623 84.99212 397.471092 81.876653 397.471092 78.628592 &#xA;C 397.471092 75.38053 396.180623 72.265064 393.883897 69.968338 &#xA;C 391.587171 67.671611 388.471705 66.381143 385.223643 66.381143 &#xA;C 381.975582 66.381143 378.860115 67.671611 376.563389 69.968338 &#xA;C 374.266663 72.265064 372.976194 75.38053 372.976194 78.628592 &#xA;C 372.976194 81.876653 374.266663 84.99212 376.563389 87.288846 &#xA;C 378.860115 89.585572 381.975582 90.87604 385.223643 90.87604 &#xA;z&#xA;" style="fill:none;stroke:#808080;stroke-opacity:0.45;stroke-width:2.2;"/>
    <path clip-path="url(#p4b9dc70598)" d="M 262.51107 119.184843 &#xA;C 265.652608 119.184843 268.6659 117.936696 270.887303 115.715293 &#xA;C 273.108706 113.49389 274.356853 110.480598 274.356853 107.339059 &#xA;C 274.356853 104.197521 273.108706 101.184229 270.887303 98.962826 &#xA;C 268.6659 96.741423 265.652608 95.493276 262.51107 95.493276 &#xA;C 259.369531 95.493276 256.356239 96.741423 254.134836 98.962826 &#xA;C 251.913433 101.184229 250.665286 104.197521 250.665286 107.339059 &#xA;C 250.665286 110.480598 251.913433 113.49389 254.134836 115.715293 &#xA;C 256.356239 117.936696 259.369531 119.184843 262.51107 119.184843 &#xA;z&#xA;" style="fill:none;stroke:#808080;stroke-opacity:0.45;stroke-width:2.2;"/>
    <path clip-path="url(#p4b9dc70598)" d="M 250.401276 147.89531 &#xA;C 253.542815 147.89531 256.556107 146.647164 258.77751 144.425761 &#xA;C 260.998913 142.204358 262.247059 139.191066 262.247059 136.049527 &#xA;C 262.247059 132.907989 260.998913 129.894697 258.77751 127.673293 &#xA;C 256.556107 125.45189 253.542815 124.203744 250.401276 124.203744 &#xA;C 247.259738 124.203744 244.246446 125.45189 242.025043 127.673293 &#xA;C 239.803639 129.894697 238.555493 132.907989 238.555493 136.049527 &#xA;C 238.555493 139.191066 239.803639 142.204358 242.025043 144.425761 &#xA;C 244.246446 146.647164 247.259738 147.89531 250.401276 147.89531 &#xA;z&#xA;" style="fill:none;stroke:#808080;stroke-opacity:0.45;stroke-width:2.2;"/>
    <path clip-path="url(#p4b9dc70598)" d="M 260.358217 173.466685 &#xA;C 262.667259 173.466685 264.882038 172.549293 266.514777 170.916554 &#xA;C 268.147516 169.283816 269.064907 167.069036 269.064907 164.759995 &#xA;C 269.064907 162.450954 268.147516 160.236174 266.514777 158.603435 &#xA;C 264.882038 156.970697 262.667259 156.053305 260.358217 156.053305 &#xA;C 258.049176 156.053305 255.834397 156.970697 254.201658 158.603435 &#xA;C 252.568919 160.236174 251.651527 162.450954 251.651527 164.759995 &#xA;C 251.651527 167.069036 252.568919 169.283816 254.201658 170.916554 &#xA;C 255.834397 172.549293 258.049176 173.466685 260.358217 173.466685 &#xA;z&#xA;" style="fill:none;stroke:#808080;stroke-opacity:0.45;stroke-width:2.2;"/>
    <path clip-path="url(#p4b9dc70598)" d="M 254.168767 201.798418 &#xA;C 256.377367 201.798418 258.495805 200.920932 260.057521 199.359216 &#xA;C 261.619237 197.797501 262.496723 195.679062 262.496723 193.470463 &#xA;C 262.496723 191.261863 261.619237 189.143425 260.057521 187.581709 &#xA;C 258.495805 186.019993 256.377367 185.142507 254.168767 185.142507 &#xA;C 251.960168 185.142507 249.84173 186.019993 248.280014 187.581709 &#xA;C 246.718298 189.143425 245.840812 191.261863 245.840812 193.470463 &#xA;C 245.840812 195.679062 246.718298 197.797501 248.280014 199.359216 &#xA;C 249.84173 200.920932 251.960168 201.798418 254.168767 201.798418 &#xA;z&#xA;" style="fill:none;stroke:#808080;stroke-opacity:0.45;stroke-width:2.2;"/>
    <path clip-path="url(#p4b9dc70598)" d="M 240.713441 230.508886 &#xA;C 242.922041 230.508886 245.040479 229.6314 246.602195 228.069684 &#xA;C 248.163911 226.507968 249.041397 224.38953 249.041397 222.18093 &#xA;C 249.041397 219.972331 248.163911 217.853892 246.602195 216.292177 &#xA;C 245.040479 214.730461 242.922041 213.852975 240.713441 213.852975 &#xA;C 238.504842 213.852975 236.386403 214.730461 234.824688 216.292177 &#xA;C 233.262972 217.853892 232.385486 219.972331 232.385486 222.18093 &#xA;C 232.385486 224.38953 233.262972 226.507968 234.824688 228.069684 &#xA;C 236.386403 229.6314 238.504842 230.508886 240.713441 230.508886 &#xA;z&#xA;" style="fill:none;stroke:#808080;stroke-opacity:0.45;stroke-width:2.2;"/>
    <path clip-path="url(#p4b9dc70598)" d="M 234.523991 259.219353 &#xA;C 236.732591 259.219353 238.851029 258.341867 240.412745 256.780152 &#xA;C 241.974461 255.218436 242.851947 253.099998 242.851947 250.891398 &#xA;C 242.851947 248.682799 241.974461 246.56436 240.412745 245.002644 &#xA;C 238.851029 243.440929 236.732591 242.563443 234.523991 242.563443 &#xA;C 232.315392 242.563443 230.196954 243.440929 228.635238 245.002644 &#xA;C 227.073522 246.56436 226.196036 248.682799 226.196036 250.891398 &#xA;C 226.196036 253.099998 227.073522 255.218436 228.635238 256.780152 &#xA;C 230.196954 258.341867 232.315392 259.219353 234.523991 259.219353 &#xA;z&#xA;" style="fill:none;stroke:#808080;stroke-opacity:0.45;stroke-width:2.2;"/>
    <path clip-path="url(#p4b9dc70598)" d="M 227.527222 287.929821 &#xA;C 229.735821 287.929821 231.85426 287.052335 233.415976 285.490619 &#xA;C 234.977691 283.928904 235.855177 281.810465 235.855177 279.601866 &#xA;C 235.855177 277.393266 234.977691 275.274828 233.415976 273.713112 &#xA;C 231.85426 272.151396 229.735821 271.273911 227.527222 271.273911 &#xA;C 225.318622 271.273911 223.200184 272.151396 221.638468 273.713112 &#xA;C 220.076753 275.274828 219.199267 277.393266 219.199267 279.601866 &#xA;C 219.199267 281.810465 220.076753 283.928904 221.638468 285.490619 &#xA;C 223.200184 287.052335 225.318622 287.929821 227.527222 287.929821 &#xA;z&#xA;" style="fill:none;stroke:#808080;stroke-opacity:0.45;stroke-width:2.2;"/>
    <path clip-path="url(#p4b9dc70598)" d="M 161.057911 315.383401 &#xA;C 162.93318 315.383401 164.731896 314.638349 166.057911 313.312334 &#xA;C 167.383927 311.986318 168.128979 310.187603 168.128979 308.312334 &#xA;C 168.128979 306.437064 167.383927 304.638349 166.057911 303.312334 &#xA;C 164.731896 301.986318 162.93318 301.241266 161.057911 301.241266 &#xA;C 159.182642 301.241266 157.383927 301.986318 156.057911 303.312334 &#xA;C 154.731896 304.638349 153.986843 306.437064 153.986843 308.312334 &#xA;C 153.986843 310.187603 154.731896 311.986318 156.057911 313.312334 &#xA;C 157.383927 314.638349 159.182642 315.383401 161.057911 315.383401 &#xA;z&#xA;" style="fill:none;stroke:#808080;stroke-opacity:0.45;stroke-width:2.2;"/>
   </g>
   <g id="text_19">
    <text style="font-family:Arial;font-size:11px;font-stretch:normal;font-style:normal;font-weight:normal;text-anchor:middle;" transform="rotate(-0, 340.95562, 15.207656)" x="340.95562" y="15.207656">KEGG Pathways enrichment</text>
   </g>
   <g id="line2d_35">
    <path clip-path="url(#p4b9dc70598)" d="M 520.85333 39.526787 &#xA;L 520.85333 60.309461 &#xA;" style="fill:none;stroke:#808080;stroke-dasharray:1.85,0.8;stroke-dashoffset:0;stroke-width:0.5;"/>
   </g>
   <g id="line2d_36">
    <path clip-path="url(#p4b9dc70598)" d="M 385.223643 67.259246 &#xA;L 385.223643 89.997937 &#xA;" style="fill:none;stroke:#808080;stroke-dasharray:1.85,0.8;stroke-dashoffset:0;stroke-width:0.5;"/>
   </g>
   <g id="line2d_37">
    <path clip-path="url(#p4b9dc70598)" d="M 262.51107 96.70322 &#xA;L 262.51107 117.974899 &#xA;" style="fill:none;stroke:#808080;stroke-dasharray:1.85,0.8;stroke-dashoffset:0;stroke-width:0.5;"/>
   </g>
   <g id="line2d_38">
    <path clip-path="url(#p4b9dc70598)" d="M 250.401276 125.413688 &#xA;L 250.401276 146.685366 &#xA;" style="fill:none;stroke:#808080;stroke-dasharray:1.85,0.8;stroke-dashoffset:0;stroke-width:0.5;"/>
   </g>
   <g id="line2d_39">
    <path clip-path="url(#p4b9dc70598)" d="M 260.358217 159.014197 &#xA;L 260.358217 170.505793 &#xA;" style="fill:none;stroke:#808080;stroke-dasharray:1.85,0.8;stroke-dashoffset:0;stroke-width:0.5;"/>
   </g>
   <g id="line2d_40">
    <path clip-path="url(#p4b9dc70598)" d="M 254.168767 188.213669 &#xA;L 254.168767 198.727257 &#xA;" style="fill:none;stroke:#808080;stroke-dasharray:1.85,0.8;stroke-dashoffset:0;stroke-width:0.5;"/>
   </g>
   <g id="line2d_41">
    <path clip-path="url(#p4b9dc70598)" d="M 240.713441 216.924136 &#xA;L 240.713441 227.437724 &#xA;" style="fill:none;stroke:#808080;stroke-dasharray:1.85,0.8;stroke-dashoffset:0;stroke-width:0.5;"/>
   </g>
   <g id="line2d_42">
    <path clip-path="url(#p4b9dc70598)" d="M 234.523991 245.634604 &#xA;L 234.523991 256.148192 &#xA;" style="fill:none;stroke:#808080;stroke-dasharray:1.85,0.8;stroke-dashoffset:0;stroke-width:0.5;"/>
   </g>
   <g id="line2d_43">
    <path clip-path="url(#p4b9dc70598)" d="M 227.527222 274.345072 &#xA;L 227.527222 284.85866 &#xA;" style="fill:none;stroke:#808080;stroke-dasharray:1.85,0.8;stroke-dashoffset:0;stroke-width:0.5;"/>
   </g>
   <g id="line2d_44">
    <path clip-path="url(#p4b9dc70598)" d="M 161.057911 304.522552 &#xA;L 161.057911 312.102115 &#xA;" style="fill:none;stroke:#808080;stroke-dasharray:1.85,0.8;stroke-dashoffset:0;stroke-width:0.5;"/>
   </g>
   <g id="invisibleRectangle_KEGG:hsa04974" style="cursor: pointer;">
    <path clip-path="url(#p4b9dc70598)" d="M 139.779687 294.531309 &#xA;L 542.131553 294.531309 &#xA;L 542.131553 320.37073 &#xA;L 139.779687 320.37073 &#xA;z&#xA;" style="fill:#ffffff;opacity:0.01;"/>
   </g>
   <g id="invisibleRectangle_KEGG:hsa05146" style="cursor: pointer;">
    <path clip-path="url(#p4b9dc70598)" d="M 139.779687 265.820841 &#xA;L 542.131553 265.820841 &#xA;L 542.131553 291.660262 &#xA;L 139.779687 291.660262 &#xA;z&#xA;" style="fill:#ffffff;opacity:0.01;"/>
   </g>
   <g id="invisibleRectangle_KEGG:hsa05414" style="cursor: pointer;">
    <path clip-path="url(#p4b9dc70598)" d="M 139.779687 237.110374 &#xA;L 542.131553 237.110374 &#xA;L 542.131553 262.949795 &#xA;L 139.779687 262.949795 &#xA;z&#xA;" style="fill:#ffffff;opacity:0.01;"/>
   </g>
   <g id="invisibleRectangle_KEGG:hsa05410" style="cursor: pointer;">
    <path clip-path="url(#p4b9dc70598)" d="M 139.779687 208.399906 &#xA;L 542.131553 208.399906 &#xA;L 542.131553 234.239327 &#xA;L 139.779687 234.239327 &#xA;z&#xA;" style="fill:#ffffff;opacity:0.01;"/>
   </g>
   <g id="invisibleRectangle_KEGG:hsa05412" style="cursor: pointer;">
    <path clip-path="url(#p4b9dc70598)" d="M 139.779687 179.689438 &#xA;L 542.131553 179.689438 &#xA;L 542.131553 205.528859 &#xA;L 139.779687 205.528859 &#xA;z&#xA;" style="fill:#ffffff;opacity:0.01;"/>
   </g>
   <g id="invisibleRectangle_KEGG:hsa05222" style="cursor: pointer;">
    <path clip-path="url(#p4b9dc70598)" d="M 139.779687 150.97897 &#xA;L 542.131553 150.97897 &#xA;L 542.131553 176.818391 &#xA;L 139.779687 176.818391 &#xA;z&#xA;" style="fill:#ffffff;opacity:0.01;"/>
   </g>
   <g id="invisibleRectangle_KEGG:hsa04151" style="cursor: pointer;">
    <path clip-path="url(#p4b9dc70598)" d="M 139.779687 122.268503 &#xA;L 542.131553 122.268503 &#xA;L 542.131553 148.107924 &#xA;L 139.779687 148.107924 &#xA;z&#xA;" style="fill:#ffffff;opacity:0.01;"/>
   </g>
   <g id="invisibleRectangle_KEGG:hsa05165" style="cursor: pointer;">
    <path clip-path="url(#p4b9dc70598)" d="M 139.779687 93.558035 &#xA;L 542.131553 93.558035 &#xA;L 542.131553 119.397456 &#xA;L 139.779687 119.397456 &#xA;z&#xA;" style="fill:#ffffff;opacity:0.01;"/>
   </g>
   <g id="invisibleRectangle_KEGG:hsa04510" style="cursor: pointer;">
    <path clip-path="url(#p4b9dc70598)" d="M 139.779687 64.847567 &#xA;L 542.131553 64.847567 &#xA;L 542.131553 90.686988 &#xA;L 139.779687 90.686988 &#xA;z&#xA;" style="fill:#ffffff;opacity:0.01;"/>
   </g>
   <g id="invisibleRectangle_KEGG:hsa04512" style="cursor: pointer;">
    <path clip-path="url(#p4b9dc70598)" d="M 139.779687 36.137099 &#xA;L 542.131553 36.137099 &#xA;L 542.131553 61.97652 &#xA;L 139.779687 61.97652 &#xA;z&#xA;" style="fill:#ffffff;opacity:0.01;"/>
   </g>
  </g>
  <g id="axes_2">
   <g id="patch_8">
    <path d="M 548.611553 337.022801 &#xA;L 649.19952 337.022801 &#xA;L 649.19952 21.207656 &#xA;L 548.611553 21.207656 &#xA;z&#xA;" style="fill:none;"/>
   </g>
   <g id="patch_9">
    <path clip-path="url(#p533aa45ca0)" d="M 548.611553 320.514282 &#xA;L 561.185049 320.514282 &#xA;L 561.185049 294.387757 &#xA;L 548.611553 294.387757 &#xA;z&#xA;" style="fill:#234da0;"/>
   </g>
   <g id="patch_10">
    <path clip-path="url(#p533aa45ca0)" d="M 548.611553 291.803815 &#xA;L 561.185049 291.803815 &#xA;L 561.185049 265.677289 &#xA;L 548.611553 265.677289 &#xA;z&#xA;" style="fill:#1f7ab5;"/>
   </g>
   <g id="patch_11">
    <path clip-path="url(#p533aa45ca0)" d="M 548.611553 263.093347 &#xA;L 561.185049 263.093347 &#xA;L 561.185049 179.545886 &#xA;L 548.611553 179.545886 &#xA;z&#xA;" style="fill:#1f7ab5;"/>
   </g>
   <g id="patch_12">
    <path clip-path="url(#p533aa45ca0)" d="M 548.611553 176.961944 &#xA;L 561.185049 176.961944 &#xA;L 561.185049 150.835418 &#xA;L 548.611553 150.835418 &#xA;z&#xA;" style="fill:#1f7ab5;"/>
   </g>
   <g id="patch_13">
    <path clip-path="url(#p533aa45ca0)" d="M 548.611553 148.251476 &#xA;L 561.185049 148.251476 &#xA;L 561.185049 35.993547 &#xA;L 548.611553 35.993547 &#xA;z&#xA;" style="fill:#d6efb3;"/>
   </g>
   <g id="matplotlib.axis_3"/>
   <g id="matplotlib.axis_4"/>
   <g id="text_20">
    <text style="font-family:Arial;font-size:9px;font-stretch:normal;font-style:normal;font-weight:normal;" transform="translate(576.087295 222.381719)rotate(-90)">Groups at similarity 0.8</text>
   </g>
  </g>
  <g id="axes_3">
   <g id="patch_14">
    <path d="M 587.39976 130.19976 &#xA;L 652.19976 130.19976 &#xA;L 652.19976 22.19976 &#xA;L 587.39976 22.19976 &#xA;z&#xA;" style="fill:none;"/>
   </g>
   <g id="PathCollection_2">
    <defs>
     <path d="M -70.710678 70.710678 &#xA;L 70.710678 70.710678 &#xA;L 70.710678 -70.710678 &#xA;L -70.710678 -70.710678 &#xA;z&#xA;" id="m3688199370" style="stroke:#ffffff;stroke-opacity:0.6;"/>
    </defs>
    <g clip-path="url(#pdbf0d19bb8)">
     <use style="fill:#ffffff;fill-opacity:0.6;stroke:#ffffff;stroke-opacity:0.6;" x="619.79976" xlink:href="#m3688199370" y="76.19976"/>
    </g>
   </g>
   <g id="matplotlib.axis_5">
    <g id="xtick_8"/>
    <g id="xtick_9"/>
    <g id="xtick_10"/>
   </g>
   <g id="matplotlib.axis_6">
    <g id="ytick_11"/>
    <g id="ytick_12"/>
    <g id="ytick_13"/>
    <g id="ytick_14"/>
    <g id="ytick_15"/>
   </g>
  </g>
  <g id="axes_4">
   <g id="patch_15">
    <path d="M 593.87976 126.59976 &#xA;L 604.67976 126.59976 &#xA;L 604.67976 40.19976 &#xA;L 593.87976 40.19976 &#xA;z&#xA;" style="fill:none;"/>
   </g>
   <g id="patch_16">
    <path clip-path="url(#p8cf6fbfa7e)" d="M 593.87976 40.19976 &#xA;L 593.87976 54.59976 &#xA;L 593.87976 112.19976 &#xA;L 593.87976 126.59976 &#xA;L 604.67976 126.59976 &#xA;L 604.67976 112.19976 &#xA;L 604.67976 54.59976 &#xA;L 604.67976 40.19976 &#xA;L 604.67976 40.19976 &#xA;z&#xA;" style="fill:#ffffff;stroke:#ffffff;stroke-linejoin:miter;stroke-width:0.01;"/>
   </g>
   <g id="QuadMesh_1">
    <path clip-path="url(#p8cf6fbfa7e)" d="M 593.87976 40.19976 &#xA;L 604.67976 40.19976 &#xA;L 604.67976 54.59976 &#xA;L 593.87976 54.59976 &#xA;L 593.87976 40.19976 &#xA;" style="fill:#d6efb3;"/>
    <path clip-path="url(#p8cf6fbfa7e)" d="M 593.87976 54.59976 &#xA;L 604.67976 54.59976 &#xA;L 604.67976 68.99976 &#xA;L 593.87976 68.99976 &#xA;L 593.87976 54.59976 &#xA;" style="fill:#a0dab8;"/>
    <path clip-path="url(#p8cf6fbfa7e)" d="M 593.87976 68.99976 &#xA;L 604.67976 68.99976 &#xA;L 604.67976 83.39976 &#xA;L 593.87976 83.39976 &#xA;L 593.87976 68.99976 &#xA;" style="fill:#5fc1c0;"/>
    <path clip-path="url(#p8cf6fbfa7e)" d="M 593.87976 83.39976 &#xA;L 604.67976 83.39976 &#xA;L 604.67976 97.79976 &#xA;L 593.87976 97.79976 &#xA;L 593.87976 83.39976 &#xA;" style="fill:#2fa4c2;"/>
    <path clip-path="url(#p8cf6fbfa7e)" d="M 593.87976 97.79976 &#xA;L 604.67976 97.79976 &#xA;L 604.67976 112.19976 &#xA;L 593.87976 112.19976 &#xA;L 593.87976 97.79976 &#xA;" style="fill:#1f7ab5;"/>
    <path clip-path="url(#p8cf6fbfa7e)" d="M 593.87976 112.19976 &#xA;L 604.67976 112.19976 &#xA;L 604.67976 126.59976 &#xA;L 593.87976 126.59976 &#xA;L 593.87976 112.19976 &#xA;" style="fill:#234da0;"/>
   </g>
   <g id="matplotlib.axis_7"/>
   <g id="matplotlib.axis_8">
    <g id="ytick_16">
     <g id="line2d_45">
      <defs>
       <path d="M 0 0 &#xA;L 3.5 0 &#xA;" id="m46d5d4c5b0" style="stroke:#000000;stroke-width:0.8;"/>
      </defs>
      <g>
       <use style="stroke:#000000;stroke-width:0.8;" x="604.67976" xlink:href="#m46d5d4c5b0" y="119.39976"/>
      </g>
     </g>
     <g id="text_21">
      <text style="font-family:Arial;font-size:9px;font-stretch:normal;font-style:normal;font-weight:normal;text-anchor:start;" transform="rotate(-0, 611.67976, 122.620776)" x="611.67976" y="122.620776">1.0e-20</text>
     </g>
    </g>
    <g id="ytick_17">
     <g id="line2d_46">
      <g>
       <use style="stroke:#000000;stroke-width:0.8;" x="604.67976" xlink:href="#m46d5d4c5b0" y="104.99976"/>
      </g>
     </g>
     <g id="text_22">
      <text style="font-family:Arial;font-size:9px;font-stretch:normal;font-style:normal;font-weight:normal;text-anchor:start;" transform="rotate(-0, 611.67976, 108.220776)" x="611.67976" y="108.220776">1.0e-32</text>
     </g>
    </g>
    <g id="ytick_18">
     <g id="line2d_47">
      <g>
       <use style="stroke:#000000;stroke-width:0.8;" x="604.67976" xlink:href="#m46d5d4c5b0" y="90.59976"/>
      </g>
     </g>
     <g id="text_23">
      <text style="font-family:Arial;font-size:9px;font-stretch:normal;font-style:normal;font-weight:normal;text-anchor:start;" transform="rotate(-0, 611.67976, 93.820776)" x="611.67976" y="93.820776">1.0e-45</text>
     </g>
    </g>
    <g id="ytick_19">
     <g id="line2d_48">
      <g>
       <use style="stroke:#000000;stroke-width:0.8;" x="604.67976" xlink:href="#m46d5d4c5b0" y="76.19976"/>
      </g>
     </g>
     <g id="text_24">
      <text style="font-family:Arial;font-size:9px;font-stretch:normal;font-style:normal;font-weight:normal;text-anchor:start;" transform="rotate(-0, 611.67976, 79.420776)" x="611.67976" y="79.420776">1.0e-57</text>
     </g>
    </g>
    <g id="ytick_20">
     <g id="line2d_49">
      <g>
       <use style="stroke:#000000;stroke-width:0.8;" x="604.67976" xlink:href="#m46d5d4c5b0" y="61.79976"/>
      </g>
     </g>
     <g id="text_25">
      <text style="font-family:Arial;font-size:9px;font-stretch:normal;font-style:normal;font-weight:normal;text-anchor:start;" transform="rotate(-0, 611.67976, 65.020776)" x="611.67976" y="65.020776">1.0e-69</text>
     </g>
    </g>
    <g id="ytick_21">
     <g id="line2d_50">
      <g>
       <use style="stroke:#000000;stroke-width:0.8;" x="604.67976" xlink:href="#m46d5d4c5b0" y="47.39976"/>
      </g>
     </g>
     <g id="text_26">
      <text style="font-family:Arial;font-size:9px;font-stretch:normal;font-style:normal;font-weight:normal;text-anchor:start;" transform="rotate(-0, 611.67976, 50.620776)" x="611.67976" y="50.620776">1.0e-81</text>
     </g>
    </g>
   </g>
   <g id="LineCollection_1"/>
   <g id="patch_17">
    <path d="M 593.87976 40.19976 &#xA;L 593.87976 54.59976 &#xA;L 593.87976 112.19976 &#xA;L 593.87976 126.59976 &#xA;L 604.67976 126.59976 &#xA;L 604.67976 112.19976 &#xA;L 604.67976 54.59976 &#xA;L 604.67976 40.19976 &#xA;z&#xA;" style="fill:none;"/>
   </g>
   <g id="text_27">
    <text style="font-family:Arial;font-size:9px;font-stretch:normal;font-style:normal;font-weight:normal;text-anchor:middle;" transform="rotate(-0, 599.27976, 34.19976)" x="599.27976" y="34.19976">FDR</text>
   </g>
  </g>
  <g id="axes_5">
   <g id="patch_18">
    <path d="M 587.39976 238.73976 &#xA;L 648.95976 238.73976 &#xA;L 648.95976 139.59576 &#xA;L 587.39976 139.59576 &#xA;z&#xA;" style="fill:none;"/>
   </g>
   <g id="PathCollection_3">
    <g clip-path="url(#p2ba640e500)">
     <use style="fill:#ffffff;fill-opacity:0.6;stroke:#ffffff;stroke-opacity:0.6;" x="618.17976" xlink:href="#m3688199370" y="189.16776"/>
    </g>
   </g>
   <g id="matplotlib.axis_9">
    <g id="xtick_11"/>
    <g id="xtick_12"/>
    <g id="xtick_13"/>
   </g>
   <g id="matplotlib.axis_10">
    <g id="ytick_22"/>
    <g id="ytick_23"/>
    <g id="ytick_24"/>
   </g>
  </g>
  <g id="axes_6">
   <g id="PathCollection_4">
    <defs>
     <path d="M 0 7.071068 &#xA;C 1.875269 7.071068 3.673985 6.326016 5 5 &#xA;C 6.326016 3.673985 7.071068 1.875269 7.071068 0 &#xA;C 7.071068 -1.875269 6.326016 -3.673985 5 -5 &#xA;C 3.673985 -6.326016 1.875269 -7.071068 0 -7.071068 &#xA;C -1.875269 -7.071068 -3.673985 -6.326016 -5 -5 &#xA;C -6.326016 -3.673985 -7.071068 -1.875269 -7.071068 0 &#xA;C -7.071068 1.875269 -6.326016 3.673985 -5 5 &#xA;C -3.673985 6.326016 -1.875269 7.071068 0 7.071068 &#xA;z&#xA;" id="mebfe9e6cee" style="stroke:#b5c2a4;stroke-width:2.2;"/>
    </defs>
    <g clip-path="url(#p942486e43f)">
     <use style="fill:#d6efb3;stroke:#b5c2a4;stroke-width:2.2;" x="610.07976" xlink:href="#mebfe9e6cee" y="166.288375"/>
    </g>
   </g>
   <g id="PathCollection_5">
    <defs>
     <path d="M 0 9.919027 &#xA;C 2.630557 9.919027 5.153727 8.873896 7.013811 7.013811 &#xA;C 8.873896 5.153727 9.919027 2.630557 9.919027 0 &#xA;C 9.919027 -2.630557 8.873896 -5.153727 7.013811 -7.013811 &#xA;C 5.153727 -8.873896 2.630557 -9.919027 0 -9.919027 &#xA;C -2.630557 -9.919027 -5.153727 -8.873896 -7.013811 -7.013811 &#xA;C -8.873896 -5.153727 -9.919027 -2.630557 -9.919027 0 &#xA;C -9.919027 2.630557 -8.873896 5.153727 -7.013811 7.013811 &#xA;C -5.153727 8.873896 -2.630557 9.919027 0 9.919027 &#xA;z&#xA;" id="m5243ce2f1b" style="stroke:#b5c2a4;stroke-width:2.2;"/>
    </defs>
    <g clip-path="url(#p942486e43f)">
     <use style="fill:#d6efb3;stroke:#b5c2a4;stroke-width:2.2;" x="610.07976" xlink:href="#m5243ce2f1b" y="191.4336"/>
    </g>
   </g>
   <g id="PathCollection_6">
    <defs>
     <path d="M 0 12.11504 &#xA;C 3.212946 12.11504 6.294731 10.838523 8.566627 8.566627 &#xA;C 10.838523 6.294731 12.11504 3.212946 12.11504 0 &#xA;C 12.11504 -3.212946 10.838523 -6.294731 8.566627 -8.566627 &#xA;C 6.294731 -10.838523 3.212946 -12.11504 0 -12.11504 &#xA;C -3.212946 -12.11504 -6.294731 -10.838523 -8.566627 -8.566627 &#xA;C -10.838523 -6.294731 -12.11504 -3.212946 -12.11504 0 &#xA;C -12.11504 3.212946 -10.838523 6.294731 -8.566627 8.566627 &#xA;C -6.294731 10.838523 -3.212946 12.11504 0 12.11504 &#xA;z&#xA;" id="m01fa24f08a" style="stroke:#b5c2a4;stroke-width:2.2;"/>
    </defs>
    <g clip-path="url(#p942486e43f)">
     <use style="fill:#d6efb3;stroke:#b5c2a4;stroke-width:2.2;" x="610.07976" xlink:href="#m01fa24f08a" y="221.342822"/>
    </g>
   </g>
   <g id="text_28">
    <text style="font-family:Arial;font-size:9px;font-stretch:normal;font-style:normal;font-weight:normal;text-anchor:start;" transform="rotate(-0, 626.27976, 169.744862)" x="626.27976" y="169.744862">15</text>
   </g>
   <g id="text_29">
    <text style="font-family:Arial;font-size:9px;font-stretch:normal;font-style:normal;font-weight:normal;text-anchor:start;" transform="rotate(-0, 626.27976, 194.890086)" x="626.27976" y="194.890086">30</text>
   </g>
   <g id="text_30">
    <text style="font-family:Arial;font-size:9px;font-stretch:normal;font-style:normal;font-weight:normal;text-anchor:start;" transform="rotate(-0, 626.27976, 224.799309)" x="626.27976" y="224.799309">45</text>
   </g>
   <g id="text_31">
    <text style="font-family:Arial;font-size:9px;font-stretch:normal;font-style:normal;font-weight:normal;text-anchor:middle;" transform="rotate(-0, 616.55976, 150.11976)" x="616.55976" y="150.11976">Gene count</text>
   </g>
  </g>
 </g>
 <defs>
  <clipPath id="p4b9dc70598">
   <rect height="315.815145" width="402.351866" x="139.779687" y="21.207656"/>
  </clipPath>
  <clipPath id="p533aa45ca0">
   <rect height="315.815145" width="100.587967" x="548.611553" y="21.207656"/>
  </clipPath>
  <clipPath id="pdbf0d19bb8">
   <rect height="108" width="64.8" x="587.39976" y="22.19976"/>
  </clipPath>
  <clipPath id="p8cf6fbfa7e">
   <rect height="86.4" width="10.8" x="593.87976" y="40.19976"/>
  </clipPath>
  <clipPath id="p2ba640e500">
   <rect height="99.144" width="61.56" x="587.39976" y="139.59576"/>
  </clipPath>
  <clipPath id="p942486e43f">
   <rect height="146.88" width="32.4" x="593.87976" y="156.11976"/>
  </clipPath>
 </defs>
</svg>