<svg id="enrichment_category_graph_svg" height="368.39952pt" version="1.1" viewBox="0 0 659.39976 368.39952" width="659.39976pt" xmlns="http://www.w3.org/2000/svg" xmlns:xlink="http://www.w3.org/1999/xlink">
 <metadata>
  <rdf:rdf xmlns:cc="http://creativecommons.org/ns#" xmlns:dc="http://purl.org/dc/elements/1.1/" xmlns:rdf="http://www.w3.org/1999/02/22-rdf-syntax-ns#">
   <cc:work>
    <dc:type rdf:resource="http://purl.org/dc/dcmitype/StillImage"/>
    <dc:date>2025-09-30T15:21:24.480180</dc:date>
    <dc:format>image/svg+xml</dc:format>
    <dc:creator>
     <cc:agent>
      <dc:title>Matplotlib v3.4.2, https://matplotlib.org/</dc:title>
     </cc:agent>
    </dc:creator>
   </cc:work>
  </rdf:rdf>
 </metadata>
 <defs>
  <style type="text/css">*{stroke-linecap:butt;stroke-linejoin:round;}</style>
 </defs>
 <g id="figure_1">
  <g id="patch_1">
   <path d="M 0 368.39952 &#xA;L 659.39976 368.39952 &#xA;L 659.39976 0 &#xA;L 0 0 &#xA;z&#xA;" style="fill:none;"/>
  </g>
  <g id="axes_1">
   <g id="patch_2">
    <path d="M 157.252344 337.022801 &#xA;L 545.626085 337.022801 &#xA;L 545.626085 21.207656 &#xA;L 157.252344 21.207656 &#xA;z&#xA;" style="fill:none;"/>
   </g>
   <g id="matplotlib.axis_1">
    <g id="xtick_1">
     <g id="line2d_1">
      <path clip-path="url(#p28a836effa)" d="M 183.728019 337.022801 &#xA;L 183.728019 21.207656 &#xA;" style="fill:none;stroke:#d3d3d3;stroke-dasharray:2.22,0.96;stroke-dashoffset:0;stroke-width:0.6;"/>
     </g>
     <g id="line2d_2"/>
     <g id="text_1">
      <text style="font-family:Arial;font-size:9px;font-stretch:normal;font-style:normal;font-weight:normal;text-anchor:middle;" transform="rotate(-0, 183.728019, 346.964832)" x="183.728019" y="346.964832">5.0</text>
     </g>
    </g>
    <g id="xtick_2">
     <g id="line2d_3">
      <path clip-path="url(#p28a836effa)" d="M 257.936513 337.022801 &#xA;L 257.936513 21.207656 &#xA;" style="fill:none;stroke:#d3d3d3;stroke-dasharray:2.22,0.96;stroke-dashoffset:0;stroke-width:0.6;"/>
     </g>
     <g id="line2d_4"/>
     <g id="text_2">
      <text style="font-family:Arial;font-size:9px;font-stretch:normal;font-style:normal;font-weight:normal;text-anchor:middle;" transform="rotate(-0, 257.936513, 346.964832)" x="257.936513" y="346.964832">5.5</text>
     </g>
    </g>
    <g id="xtick_3">
     <g id="line2d_5">
      <path clip-path="url(#p28a836effa)" d="M 332.145006 337.022801 &#xA;L 332.145006 21.207656 &#xA;" style="fill:none;stroke:#d3d3d3;stroke-dasharray:2.22,0.96;stroke-dashoffset:0;stroke-width:0.6;"/>
     </g>
     <g id="line2d_6"/>
     <g id="text_3">
      <text style="font-family:Arial;font-size:9px;font-stretch:normal;font-style:normal;font-weight:normal;text-anchor:middle;" transform="rotate(-0, 332.145006, 346.964832)" x="332.145006" y="346.964832">6.0</text>
     </g>
    </g>
    <g id="xtick_4">
     <g id="line2d_7">
      <path clip-path="url(#p28a836effa)" d="M 406.353499 337.022801 &#xA;L 406.353499 21.207656 &#xA;" style="fill:none;stroke:#d3d3d3;stroke-dasharray:2.22,0.96;stroke-dashoffset:0;stroke-width:0.6;"/>
     </g>
     <g id="line2d_8"/>
     <g id="text_4">
      <text style="font-family:Arial;font-size:9px;font-stretch:normal;font-style:normal;font-weight:normal;text-anchor:middle;" transform="rotate(-0, 406.353499, 346.964832)" x="406.353499" y="346.964832">6.5</text>
     </g>
    </g>
    <g id="xtick_5">
     <g id="line2d_9">
      <path clip-path="url(#p28a836effa)" d="M 480.561993 337.022801 &#xA;L 480.561993 21.207656 &#xA;" style="fill:none;stroke:#d3d3d3;stroke-dasharray:2.22,0.96;stroke-dashoffset:0;stroke-width:0.6;"/>
     </g>
     <g id="line2d_10"/>
     <g id="text_5">
      <text style="font-family:Arial;font-size:9px;font-stretch:normal;font-style:normal;font-weight:normal;text-anchor:middle;" transform="rotate(-0, 480.561993, 346.964832)" x="480.561993" y="346.964832">7.0</text>
     </g>
    </g>
    <g id="text_6">
     <text style="font-family:Arial;font-size:9px;font-stretch:normal;font-style:normal;font-weight:normal;text-anchor:middle;" transform="rotate(-0, 351.439214, 359.305301)" x="351.439214" y="359.305301">Signal</text>
    </g>
   </g>
   <g id="matplotlib.axis_2">
    <g id="ytick_1">
     <g id="line2d_11"/>
     <g id="text_7">
      <text style="font-family:Arial;font-size:9px;font-stretch:normal;font-style:normal;font-weight:normal;text-anchor:end;" transform="rotate(-0, 153.752344, 53.13914)" x="153.752344" y="53.13914">ErbB signaling pathway</text>
     </g>
    </g>
    <g id="ytick_2">
     <g id="line2d_12"/>
     <g id="text_8">
      <text style="font-family:Arial;font-size:9px;font-stretch:normal;font-style:normal;font-weight:normal;text-anchor:end;" transform="rotate(-0, 153.752344, 81.849607)" x="153.752344" y="81.849607">Fc epsilon RI signaling pathway</text>
     </g>
    </g>
    <g id="ytick_3">
     <g id="line2d_13"/>
     <g id="text_9">
      <text style="font-family:Arial;font-size:9px;font-stretch:normal;font-style:normal;font-weight:normal;text-anchor:end;" transform="rotate(-0, 153.752344, 110.560075)" x="153.752344" y="110.560075">Neurotrophin signaling pathway</text>
     </g>
    </g>
    <g id="ytick_4">
     <g id="line2d_14"/>
     <g id="text_10">
      <text style="font-family:Arial;font-size:9px;font-stretch:normal;font-style:normal;font-weight:normal;text-anchor:end;" transform="rotate(-0, 153.752344, 139.270543)" x="153.752344" y="139.270543">Axon guidance</text>
     </g>
    </g>
    <g id="ytick_5">
     <g id="line2d_15"/>
     <g id="text_11">
      <text style="font-family:Arial;font-size:9px;font-stretch:normal;font-style:normal;font-weight:normal;text-anchor:end;" transform="rotate(-0, 153.752344, 167.981011)" x="153.752344" y="167.981011">Yersinia infection</text>
     </g>
    </g>
    <g id="ytick_6">
     <g id="line2d_16"/>
     <g id="text_12">
      <text style="font-family:Arial;font-size:9px;font-stretch:normal;font-style:normal;font-weight:normal;text-anchor:end;" transform="rotate(-0, 153.752344, 196.691478)" x="153.752344" y="196.691478">Fc gamma R-mediated phagocytosis</text>
     </g>
    </g>
    <g id="ytick_7">
     <g id="line2d_17"/>
     <g id="text_13">
      <text style="font-family:Arial;font-size:9px;font-stretch:normal;font-style:normal;font-weight:normal;text-anchor:end;" transform="rotate(-0, 153.752344, 225.45679)" x="153.752344" y="225.45679">Bacterial invasion of epithelial cells</text>
     </g>
    </g>
    <g id="ytick_8">
     <g id="line2d_18"/>
     <g id="text_14">
      <text style="font-family:Arial;font-size:9px;font-stretch:normal;font-style:normal;font-weight:normal;text-anchor:end;" transform="rotate(-0, 153.752344, 254.112414)" x="153.752344" y="254.112414">Focal adhesion</text>
     </g>
    </g>
    <g id="ytick_9">
     <g id="line2d_19"/>
     <g id="text_15">
      <text style="font-family:Arial;font-size:9px;font-stretch:normal;font-style:normal;font-weight:normal;text-anchor:end;" transform="rotate(-0, 153.752344, 282.836241)" x="153.752344" y="282.836241">Rap1 signaling pathway</text>
     </g>
    </g>
    <g id="ytick_10">
     <g id="line2d_20"/>
     <g id="text_16">
      <text style="font-family:Arial;font-size:9px;font-stretch:normal;font-style:normal;font-weight:normal;text-anchor:end;" transform="rotate(-0, 153.752344, 311.588193)" x="153.752344" y="311.588193">Chemokine signaling pathway</text>
     </g>
    </g>
   </g>
   <g id="patch_3">
    <path clip-path="url(#p28a836effa)" d="M 157.252344 294.531309 &#xA;L 545.626085 294.531309 &#xA;L 545.626085 320.37073 &#xA;L 157.252344 320.37073 &#xA;z&#xA;" style="fill:#2fa4c2;opacity:0.1;"/>
   </g>
   <g id="patch_4">
    <path clip-path="url(#p28a836effa)" d="M 157.252344 265.820841 &#xA;L 545.626085 265.820841 &#xA;L 545.626085 291.660262 &#xA;L 157.252344 291.660262 &#xA;z&#xA;" style="fill:#5fc1c0;opacity:0.1;"/>
   </g>
   <g id="patch_5">
    <path clip-path="url(#p28a836effa)" d="M 157.252344 237.110374 &#xA;L 545.626085 237.110374 &#xA;L 545.626085 262.949795 &#xA;L 157.252344 262.949795 &#xA;z&#xA;" style="fill:#5fc1c0;opacity:0.1;"/>
   </g>
   <g id="patch_6">
    <path clip-path="url(#p28a836effa)" d="M 157.252344 208.399906 &#xA;L 545.626085 208.399906 &#xA;L 545.626085 234.239327 &#xA;L 157.252344 234.239327 &#xA;z&#xA;" style="fill:#234da0;opacity:0.1;"/>
   </g>
   <g id="patch_7">
    <path clip-path="url(#p28a836effa)" d="M 157.252344 179.689438 &#xA;L 545.626085 179.689438 &#xA;L 545.626085 205.528859 &#xA;L 157.252344 205.528859 &#xA;z&#xA;" style="fill:#1f7ab5;opacity:0.1;"/>
   </g>
   <g id="patch_8">
    <path clip-path="url(#p28a836effa)" d="M 157.252344 150.97897 &#xA;L 545.626085 150.97897 &#xA;L 545.626085 176.818391 &#xA;L 157.252344 176.818391 &#xA;z&#xA;" style="fill:#2fa4c2;opacity:0.1;"/>
   </g>
   <g id="patch_9">
    <path clip-path="url(#p28a836effa)" d="M 157.252344 122.268503 &#xA;L 545.626085 122.268503 &#xA;L 545.626085 148.107924 &#xA;L 157.252344 148.107924 &#xA;z&#xA;" style="fill:#d6efb3;opacity:0.1;"/>
   </g>
   <g id="patch_10">
    <path clip-path="url(#p28a836effa)" d="M 157.252344 93.558035 &#xA;L 545.626085 93.558035 &#xA;L 545.626085 119.397456 &#xA;L 157.252344 119.397456 &#xA;z&#xA;" style="fill:#d6efb3;opacity:0.1;"/>
   </g>
   <g id="patch_11">
    <path clip-path="url(#p28a836effa)" d="M 157.252344 64.847567 &#xA;L 545.626085 64.847567 &#xA;L 545.626085 90.686988 &#xA;L 157.252344 90.686988 &#xA;z&#xA;" style="fill:#5fc1c0;opacity:0.1;"/>
   </g>
   <g id="patch_12">
    <path clip-path="url(#p28a836effa)" d="M 157.252344 36.137099 &#xA;L 545.626085 36.137099 &#xA;L 545.626085 61.97652 &#xA;L 157.252344 61.97652 &#xA;z&#xA;" style="fill:#d6efb3;opacity:0.1;"/>
   </g>
   <g id="horizontalLine_KEGG:hsa04012">
    <path data-original-stroke="grey" clip-path="url(#p28a836effa)" d="M 157.252344 49.918124 &#xA;L 525.087089 49.918124 &#xA;" style="fill:none;stroke:#d6efb3;stroke-linecap:square;stroke-width:3;"/>
   </g>
   <g id="horizontalLine_KEGG:hsa04664">
    <path data-original-stroke="grey" clip-path="url(#p28a836effa)" d="M 157.252344 78.628592 &#xA;L 459.783615 78.628592 &#xA;" style="fill:none;stroke:#5fc1c0;stroke-linecap:square;stroke-width:3;"/>
   </g>
   <g id="horizontalLine_KEGG:hsa04722">
    <path data-original-stroke="grey" clip-path="url(#p28a836effa)" d="M 157.252344 107.339059 &#xA;L 421.195198 107.339059 &#xA;" style="fill:none;stroke:#d6efb3;stroke-linecap:square;stroke-width:3;"/>
   </g>
   <g id="horizontalLine_KEGG:hsa04360">
    <path data-original-stroke="grey" clip-path="url(#p28a836effa)" d="M 157.252344 136.049527 &#xA;L 314.334968 136.049527 &#xA;" style="fill:none;stroke:#d6efb3;stroke-linecap:square;stroke-width:3;"/>
   </g>
   <g id="horizontalLine_KEGG:hsa05135">
    <path data-original-stroke="grey" clip-path="url(#p28a836effa)" d="M 157.252344 164.759995 &#xA;L 278.714891 164.759995 &#xA;" style="fill:none;stroke:#2fa4c2;stroke-linecap:square;stroke-width:3;"/>
   </g>
   <g id="horizontalLine_KEGG:hsa04666">
    <path data-original-stroke="grey" clip-path="url(#p28a836effa)" d="M 157.252344 193.470463 &#xA;L 268.325702 193.470463 &#xA;" style="fill:none;stroke:#1f7ab5;stroke-linecap:square;stroke-width:3;"/>
   </g>
   <g id="horizontalLine_KEGG:hsa05100">
    <path data-original-stroke="grey" clip-path="url(#p28a836effa)" d="M 157.252344 222.18093 &#xA;L 253.484003 222.18093 &#xA;" style="fill:none;stroke:#234da0;stroke-linecap:square;stroke-width:3;"/>
   </g>
   <g id="horizontalLine_KEGG:hsa04510">
    <path data-original-stroke="grey" clip-path="url(#p28a836effa)" d="M 157.252344 250.891398 &#xA;L 191.148868 250.891398 &#xA;" style="fill:none;stroke:#5fc1c0;stroke-linecap:square;stroke-width:3;"/>
   </g>
   <g id="horizontalLine_KEGG:hsa04015">
    <path data-original-stroke="grey" clip-path="url(#p28a836effa)" d="M 157.252344 279.601866 &#xA;L 177.79134 279.601866 &#xA;" style="fill:none;stroke:#5fc1c0;stroke-linecap:square;stroke-width:3;"/>
   </g>
   <g id="horizontalLine_KEGG:hsa04062">
    <path data-original-stroke="grey" clip-path="url(#p28a836effa)" d="M 157.252344 308.312334 &#xA;L 177.79134 308.312334 &#xA;" style="fill:none;stroke:#2fa4c2;stroke-linecap:square;stroke-width:3;"/>
   </g>
   <g id="line2d_21">
    <path clip-path="url(#p28a836effa)" d="M 157.252344 49.918124 &#xA;L 525.087089 49.918124 &#xA;" style="fill:none;stroke:#ffffff;stroke-linecap:square;stroke-opacity:0.4;stroke-width:3;"/>
   </g>
   <g id="line2d_22">
    <path clip-path="url(#p28a836effa)" d="M 157.252344 78.628592 &#xA;L 459.783615 78.628592 &#xA;" style="fill:none;stroke:#ffffff;stroke-linecap:square;stroke-opacity:0.4;stroke-width:3;"/>
   </g>
   <g id="line2d_23">
    <path clip-path="url(#p28a836effa)" d="M 157.252344 107.339059 &#xA;L 421.195198 107.339059 &#xA;" style="fill:none;stroke:#ffffff;stroke-linecap:square;stroke-opacity:0.4;stroke-width:3;"/>
   </g>
   <g id="line2d_24">
    <path clip-path="url(#p28a836effa)" d="M 157.252344 136.049527 &#xA;L 314.334968 136.049527 &#xA;" style="fill:none;stroke:#ffffff;stroke-linecap:square;stroke-opacity:0.4;stroke-width:3;"/>
   </g>
   <g id="line2d_25">
    <path clip-path="url(#p28a836effa)" d="M 157.252344 164.759995 &#xA;L 278.714891 164.759995 &#xA;" style="fill:none;stroke:#ffffff;stroke-linecap:square;stroke-opacity:0.4;stroke-width:3;"/>
   </g>
   <g id="line2d_26">
    <path clip-path="url(#p28a836effa)" d="M 157.252344 193.470463 &#xA;L 268.325702 193.470463 &#xA;" style="fill:none;stroke:#ffffff;stroke-linecap:square;stroke-opacity:0.4;stroke-width:3;"/>
   </g>
   <g id="line2d_27">
    <path clip-path="url(#p28a836effa)" d="M 157.252344 222.18093 &#xA;L 253.484003 222.18093 &#xA;" style="fill:none;stroke:#ffffff;stroke-linecap:square;stroke-opacity:0.4;stroke-width:3;"/>
   </g>
   <g id="line2d_28">
    <path clip-path="url(#p28a836effa)" d="M 157.252344 250.891398 &#xA;L 191.148868 250.891398 &#xA;" style="fill:none;stroke:#ffffff;stroke-linecap:square;stroke-opacity:0.4;stroke-width:3;"/>
   </g>
   <g id="line2d_29">
    <path clip-path="url(#p28a836effa)" d="M 157.252344 279.601866 &#xA;L 177.79134 279.601866 &#xA;" style="fill:none;stroke:#ffffff;stroke-linecap:square;stroke-opacity:0.4;stroke-width:3;"/>
   </g>
   <g id="line2d_30">
    <path clip-path="url(#p28a836effa)" d="M 157.252344 308.312334 &#xA;L 177.79134 308.312334 &#xA;" style="fill:none;stroke:#ffffff;stroke-linecap:square;stroke-opacity:0.4;stroke-width:3;"/>
   </g>
   <g id="dots_plot">
    <path id="circle_KEGG:hsa04012" data-original-stroke="grey" clip-path="url(#p28a836effa)" d="M 525.087089 60.406212 &#xA;C 527.868562 60.406212 530.536488 59.301121 532.503287 57.334322 &#xA;C 534.470086 55.367524 535.575177 52.699598 535.575177 49.918124 &#xA;C 535.575177 47.13665 534.470086 44.468724 532.503287 42.501925 &#xA;C 530.536488 40.535127 527.868562 39.430035 525.087089 39.430035 &#xA;C 522.305615 39.430035 519.637689 40.535127 517.67089 42.501925 &#xA;C 515.704092 44.468724 514.599 47.13665 514.599 49.918124 &#xA;C 514.599 52.699598 515.704092 55.367524 517.67089 57.334322 &#xA;C 519.637689 59.301121 522.305615 60.406212 525.087089 60.406212 &#xA;z&#xA;" style="fill:#d6efb3;stroke:#d6efb3;stroke-width:2.2;"/>
    <path id="circle_KEGG:hsa04664" data-original-stroke="grey" clip-path="url(#p28a836effa)" d="M 459.783615 87.572864 &#xA;C 462.155663 87.572864 464.430878 86.630439 466.10817 84.953147 &#xA;C 467.785462 83.275855 468.727887 81.00064 468.727887 78.628592 &#xA;C 468.727887 76.256543 467.785462 73.981328 466.10817 72.304036 &#xA;C 464.430878 70.626745 462.155663 69.68432 459.783615 69.68432 &#xA;C 457.411566 69.68432 455.136351 70.626745 453.459059 72.304036 &#xA;C 451.781768 73.981328 450.839343 76.256543 450.839343 78.628592 &#xA;C 450.839343 81.00064 451.781768 83.275855 453.459059 84.953147 &#xA;C 455.136351 86.630439 457.411566 87.572864 459.783615 87.572864 &#xA;z&#xA;" style="fill:#5fc1c0;stroke:#5fc1c0;stroke-width:2.2;"/>
    <path id="circle_KEGG:hsa04722" data-original-stroke="grey" clip-path="url(#p28a836effa)" d="M 421.195198 118.293511 &#xA;C 424.100352 118.293511 426.88691 117.139281 428.941165 115.085026 &#xA;C 430.995419 113.030772 432.149649 110.244214 432.149649 107.339059 &#xA;C 432.149649 104.433905 430.995419 101.647347 428.941165 99.593093 &#xA;C 426.88691 97.538838 424.100352 96.384608 421.195198 96.384608 &#xA;C 418.290044 96.384608 415.503486 97.538838 413.449231 99.593093 &#xA;C 411.394977 101.647347 410.240747 104.433905 410.240747 107.339059 &#xA;C 410.240747 110.244214 411.394977 113.030772 413.449231 115.085026 &#xA;C 415.503486 117.139281 418.290044 118.293511 421.195198 118.293511 &#xA;z&#xA;" style="fill:#d6efb3;stroke:#d6efb3;stroke-width:2.2;"/>
    <path id="circle_KEGG:hsa04360" data-original-stroke="grey" clip-path="url(#p28a836effa)" d="M 314.334968 148.296976 &#xA;C 317.583029 148.296976 320.698495 147.006507 322.995222 144.709781 &#xA;C 325.291948 142.413055 326.582416 139.297589 326.582416 136.049527 &#xA;C 326.582416 132.801466 325.291948 129.685999 322.995222 127.389273 &#xA;C 320.698495 125.092547 317.583029 123.802078 314.334968 123.802078 &#xA;C 311.086906 123.802078 307.97144 125.092547 305.674714 127.389273 &#xA;C 303.377987 129.685999 302.087519 132.801466 302.087519 136.049527 &#xA;C 302.087519 139.297589 303.377987 142.413055 305.674714 144.709781 &#xA;C 307.97144 147.006507 311.086906 148.296976 314.334968 148.296976 &#xA;z&#xA;" style="fill:#d6efb3;stroke:#d6efb3;stroke-width:2.2;"/>
    <path id="circle_KEGG:hsa05135" data-original-stroke="grey" clip-path="url(#p28a836effa)" d="M 278.714891 174.759995 &#xA;C 281.366922 174.759995 283.910689 173.706332 285.785959 171.831063 &#xA;C 287.661228 169.955794 288.714891 167.412026 288.714891 164.759995 &#xA;C 288.714891 162.107964 287.661228 159.564196 285.785959 157.688927 &#xA;C 283.910689 155.813658 281.366922 154.759995 278.714891 154.759995 &#xA;C 276.06286 154.759995 273.519092 155.813658 271.643823 157.688927 &#xA;C 269.768554 159.564196 268.714891 162.107964 268.714891 164.759995 &#xA;C 268.714891 167.412026 269.768554 169.955794 271.643823 171.831063 &#xA;C 273.519092 173.706332 276.06286 174.759995 278.714891 174.759995 &#xA;z&#xA;" style="fill:#2fa4c2;stroke:#2fa4c2;stroke-width:2.2;"/>
    <path id="circle_KEGG:hsa04666" data-original-stroke="grey" clip-path="url(#p28a836effa)" d="M 268.325702 201.837063 &#xA;C 270.54455 201.837063 272.672819 200.955505 274.241781 199.386542 &#xA;C 275.810744 197.81758 276.692302 195.689311 276.692302 193.470463 &#xA;C 276.692302 191.251614 275.810744 189.123346 274.241781 187.554383 &#xA;C 272.672819 185.98542 270.54455 185.103862 268.325702 185.103862 &#xA;C 266.106853 185.103862 263.978585 185.98542 262.409622 187.554383 &#xA;C 260.840659 189.123346 259.959101 191.251614 259.959101 193.470463 &#xA;C 259.959101 195.689311 260.840659 197.81758 262.409622 199.386542 &#xA;C 263.978585 200.955505 266.106853 201.837063 268.325702 201.837063 &#xA;z&#xA;" style="fill:#1f7ab5;stroke:#1f7ab5;stroke-width:2.2;"/>
    <path id="circle_KEGG:hsa05100" data-original-stroke="grey" clip-path="url(#p28a836effa)" d="M 253.484003 229.251998 &#xA;C 255.359272 229.251998 257.157987 228.506946 258.484003 227.18093 &#xA;C 259.810018 225.854915 260.555071 224.056199 260.555071 222.18093 &#xA;C 260.555071 220.305661 259.810018 218.506946 258.484003 217.18093 &#xA;C 257.157987 215.854915 255.359272 215.109863 253.484003 215.109863 &#xA;C 251.608734 215.109863 249.810018 215.854915 248.484003 217.18093 &#xA;C 247.157987 218.506946 246.412935 220.305661 246.412935 222.18093 &#xA;C 246.412935 224.056199 247.157987 225.854915 248.484003 227.18093 &#xA;C 249.810018 228.506946 251.608734 229.251998 253.484003 229.251998 &#xA;z&#xA;" style="fill:#234da0;stroke:#234da0;stroke-width:2.2;"/>
    <path id="circle_KEGG:hsa04510" data-original-stroke="grey" clip-path="url(#p28a836effa)" d="M 191.148868 262.293152 &#xA;C 194.172649 262.293152 197.07299 261.091792 199.211126 258.953656 &#xA;C 201.349262 256.81552 202.550623 253.915179 202.550623 250.891398 &#xA;C 202.550623 247.867617 201.349262 244.967276 199.211126 242.82914 &#xA;C 197.07299 240.691005 194.172649 239.489644 191.148868 239.489644 &#xA;C 188.125088 239.489644 185.224746 240.691005 183.086611 242.82914 &#xA;C 180.948475 244.967276 179.747114 247.867617 179.747114 250.891398 &#xA;C 179.747114 253.915179 180.948475 256.81552 183.086611 258.953656 &#xA;C 185.224746 261.091792 188.125088 262.293152 191.148868 262.293152 &#xA;z&#xA;" style="fill:#5fc1c0;stroke:#5fc1c0;stroke-width:2.2;"/>
    <path id="circle_KEGG:hsa04015" data-original-stroke="grey" clip-path="url(#p28a836effa)" d="M 177.79134 291.00362 &#xA;C 180.81512 291.00362 183.715462 289.802259 185.853597 287.664124 &#xA;C 187.991733 285.525988 189.193094 282.625646 189.193094 279.601866 &#xA;C 189.193094 276.578085 187.991733 273.677744 185.853597 271.539608 &#xA;C 183.715462 269.401472 180.81512 268.200112 177.79134 268.200112 &#xA;C 174.767559 268.200112 171.867218 269.401472 169.729082 271.539608 &#xA;C 167.590946 273.677744 166.389585 276.578085 166.389585 279.601866 &#xA;C 166.389585 282.625646 167.590946 285.525988 169.729082 287.664124 &#xA;C 171.867218 289.802259 174.767559 291.00362 177.79134 291.00362 &#xA;z&#xA;" style="fill:#5fc1c0;stroke:#5fc1c0;stroke-width:2.2;"/>
    <path id="circle_KEGG:hsa04062" data-original-stroke="grey" clip-path="url(#p28a836effa)" d="M 177.79134 319.266785 &#xA;C 180.696494 319.266785 183.483052 318.112555 185.537306 316.0583 &#xA;C 187.591561 314.004046 188.745791 311.217488 188.745791 308.312334 &#xA;C 188.745791 305.407179 187.591561 302.620621 185.537306 300.566367 &#xA;C 183.483052 298.512112 180.696494 297.357882 177.79134 297.357882 &#xA;C 174.886185 297.357882 172.099627 298.512112 170.045373 300.566367 &#xA;C 167.991119 302.620621 166.836889 305.407179 166.836889 308.312334 &#xA;C 166.836889 311.217488 167.991119 314.004046 170.045373 316.0583 &#xA;C 172.099627 318.112555 174.886185 319.266785 177.79134 319.266785 &#xA;z&#xA;" style="fill:#2fa4c2;stroke:#2fa4c2;stroke-width:2.2;"/>
   </g>
   <g id="PathCollection_1">
    <path clip-path="url(#p28a836effa)" d="M 525.087089 60.406212 &#xA;C 527.868562 60.406212 530.536488 59.301121 532.503287 57.334322 &#xA;C 534.470086 55.367524 535.575177 52.699598 535.575177 49.918124 &#xA;C 535.575177 47.13665 534.470086 44.468724 532.503287 42.501925 &#xA;C 530.536488 40.535127 527.868562 39.430035 525.087089 39.430035 &#xA;C 522.305615 39.430035 519.637689 40.535127 517.67089 42.501925 &#xA;C 515.704092 44.468724 514.599 47.13665 514.599 49.918124 &#xA;C 514.599 52.699598 515.704092 55.367524 517.67089 57.334322 &#xA;C 519.637689 59.301121 522.305615 60.406212 525.087089 60.406212 &#xA;z&#xA;" style="fill:none;stroke:#808080;stroke-opacity:0.45;stroke-width:2.2;"/>
    <path clip-path="url(#p28a836effa)" d="M 459.783615 87.572864 &#xA;C 462.155663 87.572864 464.430878 86.630439 466.10817 84.953147 &#xA;C 467.785462 83.275855 468.727887 81.00064 468.727887 78.628592 &#xA;C 468.727887 76.256543 467.785462 73.981328 466.10817 72.304036 &#xA;C 464.430878 70.626745 462.155663 69.68432 459.783615 69.68432 &#xA;C 457.411566 69.68432 455.136351 70.626745 453.459059 72.304036 &#xA;C 451.781768 73.981328 450.839343 76.256543 450.839343 78.628592 &#xA;C 450.839343 81.00064 451.781768 83.275855 453.459059 84.953147 &#xA;C 455.136351 86.630439 457.411566 87.572864 459.783615 87.572864 &#xA;z&#xA;" style="fill:none;stroke:#808080;stroke-opacity:0.45;stroke-width:2.2;"/>
    <path clip-path="url(#p28a836effa)" d="M 421.195198 118.293511 &#xA;C 424.100352 118.293511 426.88691 117.139281 428.941165 115.085026 &#xA;C 430.995419 113.030772 432.149649 110.244214 432.149649 107.339059 &#xA;C 432.149649 104.433905 430.995419 101.647347 428.941165 99.593093 &#xA;C 426.88691 97.538838 424.100352 96.384608 421.195198 96.384608 &#xA;C 418.290044 96.384608 415.503486 97.538838 413.449231 99.593093 &#xA;C 411.394977 101.647347 410.240747 104.433905 410.240747 107.339059 &#xA;C 410.240747 110.244214 411.394977 113.030772 413.449231 115.085026 &#xA;C 415.503486 117.139281 418.290044 118.293511 421.195198 118.293511 &#xA;z&#xA;" style="fill:none;stroke:#808080;stroke-opacity:0.45;stroke-width:2.2;"/>
    <path clip-path="url(#p28a836effa)" d="M 314.334968 148.296976 &#xA;C 317.583029 148.296976 320.698495 147.006507 322.995222 144.709781 &#xA;C 325.291948 142.413055 326.582416 139.297589 326.582416 136.049527 &#xA;C 326.582416 132.801466 325.291948 129.685999 322.995222 127.389273 &#xA;C 320.698495 125.092547 317.583029 123.802078 314.334968 123.802078 &#xA;C 311.086906 123.802078 307.97144 125.092547 305.674714 127.389273 &#xA;C 303.377987 129.685999 302.087519 132.801466 302.087519 136.049527 &#xA;C 302.087519 139.297589 303.377987 142.413055 305.674714 144.709781 &#xA;C 307.97144 147.006507 311.086906 148.296976 314.334968 148.296976 &#xA;z&#xA;" style="fill:none;stroke:#808080;stroke-opacity:0.45;stroke-width:2.2;"/>
    <path clip-path="url(#p28a836effa)" d="M 278.714891 174.759995 &#xA;C 281.366922 174.759995 283.910689 173.706332 285.785959 171.831063 &#xA;C 287.661228 169.955794 288.714891 167.412026 288.714891 164.759995 &#xA;C 288.714891 162.107964 287.661228 159.564196 285.785959 157.688927 &#xA;C 283.910689 155.813658 281.366922 154.759995 278.714891 154.759995 &#xA;C 276.06286 154.759995 273.519092 155.813658 271.643823 157.688927 &#xA;C 269.768554 159.564196 268.714891 162.107964 268.714891 164.759995 &#xA;C 268.714891 167.412026 269.768554 169.955794 271.643823 171.831063 &#xA;C 273.519092 173.706332 276.06286 174.759995 278.714891 174.759995 &#xA;z&#xA;" style="fill:none;stroke:#808080;stroke-opacity:0.45;stroke-width:2.2;"/>
    <path clip-path="url(#p28a836effa)" d="M 268.325702 201.837063 &#xA;C 270.54455 201.837063 272.672819 200.955505 274.241781 199.386542 &#xA;C 275.810744 197.81758 276.692302 195.689311 276.692302 193.470463 &#xA;C 276.692302 191.251614 275.810744 189.123346 274.241781 187.554383 &#xA;C 272.672819 185.98542 270.54455 185.103862 268.325702 185.103862 &#xA;C 266.106853 185.103862 263.978585 185.98542 262.409622 187.554383 &#xA;C 260.840659 189.123346 259.959101 191.251614 259.959101 193.470463 &#xA;C 259.959101 195.689311 260.840659 197.81758 262.409622 199.386542 &#xA;C 263.978585 200.955505 266.106853 201.837063 268.325702 201.837063 &#xA;z&#xA;" style="fill:none;stroke:#808080;stroke-opacity:0.45;stroke-width:2.2;"/>
    <path clip-path="url(#p28a836effa)" d="M 253.484003 229.251998 &#xA;C 255.359272 229.251998 257.157987 228.506946 258.484003 227.18093 &#xA;C 259.810018 225.854915 260.555071 224.056199 260.555071 222.18093 &#xA;C 260.555071 220.305661 259.810018 218.506946 258.484003 217.18093 &#xA;C 257.157987 215.854915 255.359272 215.109863 253.484003 215.109863 &#xA;C 251.608734 215.109863 249.810018 215.854915 248.484003 217.18093 &#xA;C 247.157987 218.506946 246.412935 220.305661 246.412935 222.18093 &#xA;C 246.412935 224.056199 247.157987 225.854915 248.484003 227.18093 &#xA;C 249.810018 228.506946 251.608734 229.251998 253.484003 229.251998 &#xA;z&#xA;" style="fill:none;stroke:#808080;stroke-opacity:0.45;stroke-width:2.2;"/>
    <path clip-path="url(#p28a836effa)" d="M 191.148868 262.293152 &#xA;C 194.172649 262.293152 197.07299 261.091792 199.211126 258.953656 &#xA;C 201.349262 256.81552 202.550623 253.915179 202.550623 250.891398 &#xA;C 202.550623 247.867617 201.349262 244.967276 199.211126 242.82914 &#xA;C 197.07299 240.691005 194.172649 239.489644 191.148868 239.489644 &#xA;C 188.125088 239.489644 185.224746 240.691005 183.086611 242.82914 &#xA;C 180.948475 244.967276 179.747114 247.867617 179.747114 250.891398 &#xA;C 179.747114 253.915179 180.948475 256.81552 183.086611 258.953656 &#xA;C 185.224746 261.091792 188.125088 262.293152 191.148868 262.293152 &#xA;z&#xA;" style="fill:none;stroke:#808080;stroke-opacity:0.45;stroke-width:2.2;"/>
    <path clip-path="url(#p28a836effa)" d="M 177.79134 291.00362 &#xA;C 180.81512 291.00362 183.715462 289.802259 185.853597 287.664124 &#xA;C 187.991733 285.525988 189.193094 282.625646 189.193094 279.601866 &#xA;C 189.193094 276.578085 187.991733 273.677744 185.853597 271.539608 &#xA;C 183.715462 269.401472 180.81512 268.200112 177.79134 268.200112 &#xA;C 174.767559 268.200112 171.867218 269.401472 169.729082 271.539608 &#xA;C 167.590946 273.677744 166.389585 276.578085 166.389585 279.601866 &#xA;C 166.389585 282.625646 167.590946 285.525988 169.729082 287.664124 &#xA;C 171.867218 289.802259 174.767559 291.00362 177.79134 291.00362 &#xA;z&#xA;" style="fill:none;stroke:#808080;stroke-opacity:0.45;stroke-width:2.2;"/>
    <path clip-path="url(#p28a836effa)" d="M 177.79134 319.266785 &#xA;C 180.696494 319.266785 183.483052 318.112555 185.537306 316.0583 &#xA;C 187.591561 314.004046 188.745791 311.217488 188.745791 308.312334 &#xA;C 188.745791 305.407179 187.591561 302.620621 185.537306 300.566367 &#xA;C 183.483052 298.512112 180.696494 297.357882 177.79134 297.357882 &#xA;C 174.886185 297.357882 172.099627 298.512112 170.045373 300.566367 &#xA;C 167.991119 302.620621 166.836889 305.407179 166.836889 308.312334 &#xA;C 166.836889 311.217488 167.991119 314.004046 170.045373 316.0583 &#xA;C 172.099627 318.112555 174.886185 319.266785 177.79134 319.266785 &#xA;z&#xA;" style="fill:none;stroke:#808080;stroke-opacity:0.45;stroke-width:2.2;"/>
   </g>
   <g id="text_17">
    <text style="font-family:Arial;font-size:11px;font-stretch:normal;font-style:normal;font-weight:normal;text-anchor:middle;" transform="rotate(-0, 351.439214, 15.207656)" x="351.439214" y="15.207656">KEGG Pathways enrichment</text>
   </g>
   <g id="line2d_31">
    <path clip-path="url(#p28a836effa)" d="M 525.087089 41.580604 &#xA;L 525.087089 58.255644 &#xA;" style="fill:none;stroke:#808080;stroke-dasharray:1.85,0.8;stroke-dashoffset:0;stroke-width:0.5;"/>
   </g>
   <g id="line2d_32">
    <path clip-path="url(#p28a836effa)" d="M 459.783615 72.564941 &#xA;L 459.783615 84.692242 &#xA;" style="fill:none;stroke:#808080;stroke-dasharray:1.85,0.8;stroke-dashoffset:0;stroke-width:0.5;"/>
   </g>
   <g id="line2d_33">
    <path clip-path="url(#p28a836effa)" d="M 421.195198 98.243583 &#xA;L 421.195198 116.434536 &#xA;" style="fill:none;stroke:#808080;stroke-dasharray:1.85,0.8;stroke-dashoffset:0;stroke-width:0.5;"/>
   </g>
   <g id="line2d_34">
    <path clip-path="url(#p28a836effa)" d="M 314.334968 124.680182 &#xA;L 314.334968 147.418872 &#xA;" style="fill:none;stroke:#808080;stroke-dasharray:1.85,0.8;stroke-dashoffset:0;stroke-width:0.5;"/>
   </g>
   <g id="line2d_35">
    <path clip-path="url(#p28a836effa)" d="M 278.714891 157.180431 &#xA;L 278.714891 172.339558 &#xA;" style="fill:none;stroke:#808080;stroke-dasharray:1.85,0.8;stroke-dashoffset:0;stroke-width:0.5;"/>
   </g>
   <g id="line2d_36">
    <path clip-path="url(#p28a836effa)" d="M 268.325702 188.164768 &#xA;L 268.325702 198.776157 &#xA;" style="fill:none;stroke:#808080;stroke-dasharray:1.85,0.8;stroke-dashoffset:0;stroke-width:0.5;"/>
   </g>
   <g id="line2d_37">
    <path clip-path="url(#p28a836effa)" d="M 253.484003 218.391149 &#xA;L 253.484003 225.970712 &#xA;" style="fill:none;stroke:#808080;stroke-dasharray:1.85,0.8;stroke-dashoffset:0;stroke-width:0.5;"/>
   </g>
   <g id="line2d_38">
    <path clip-path="url(#p28a836effa)" d="M 191.148868 241.037966 &#xA;L 191.148868 260.744831 &#xA;" style="fill:none;stroke:#808080;stroke-dasharray:1.85,0.8;stroke-dashoffset:0;stroke-width:0.5;"/>
   </g>
   <g id="line2d_39">
    <path clip-path="url(#p28a836effa)" d="M 177.79134 269.748433 &#xA;L 177.79134 289.455298 &#xA;" style="fill:none;stroke:#808080;stroke-dasharray:1.85,0.8;stroke-dashoffset:0;stroke-width:0.5;"/>
   </g>
   <g id="line2d_40">
    <path clip-path="url(#p28a836effa)" d="M 177.79134 299.216857 &#xA;L 177.79134 317.40781 &#xA;" style="fill:none;stroke:#808080;stroke-dasharray:1.85,0.8;stroke-dashoffset:0;stroke-width:0.5;"/>
   </g>
   <g id="invisibleRectangle_KEGG:hsa04062" style="cursor: pointer;">
    <path clip-path="url(#p28a836effa)" d="M 157.252344 294.531309 &#xA;L 545.626085 294.531309 &#xA;L 545.626085 320.37073 &#xA;L 157.252344 320.37073 &#xA;z&#xA;" style="fill:#ffffff;opacity:0.01;"/>
   </g>
   <g id="invisibleRectangle_KEGG:hsa04015" style="cursor: pointer;">
    <path clip-path="url(#p28a836effa)" d="M 157.252344 265.820841 &#xA;L 545.626085 265.820841 &#xA;L 545.626085 291.660262 &#xA;L 157.252344 291.660262 &#xA;z&#xA;" style="fill:#ffffff;opacity:0.01;"/>
   </g>
   <g id="invisibleRectangle_KEGG:hsa04510" style="cursor: pointer;">
    <path clip-path="url(#p28a836effa)" d="M 157.252344 237.110374 &#xA;L 545.626085 237.110374 &#xA;L 545.626085 262.949795 &#xA;L 157.252344 262.949795 &#xA;z&#xA;" style="fill:#ffffff;opacity:0.01;"/>
   </g>
   <g id="invisibleRectangle_KEGG:hsa05100" style="cursor: pointer;">
    <path clip-path="url(#p28a836effa)" d="M 157.252344 208.399906 &#xA;L 545.626085 208.399906 &#xA;L 545.626085 234.239327 &#xA;L 157.252344 234.239327 &#xA;z&#xA;" style="fill:#ffffff;opacity:0.01;"/>
   </g>
   <g id="invisibleRectangle_KEGG:hsa04666" style="cursor: pointer;">
    <path clip-path="url(#p28a836effa)" d="M 157.252344 179.689438 &#xA;L 545.626085 179.689438 &#xA;L 545.626085 205.528859 &#xA;L 157.252344 205.528859 &#xA;z&#xA;" style="fill:#ffffff;opacity:0.01;"/>
   </g>
   <g id="invisibleRectangle_KEGG:hsa05135" style="cursor: pointer;">
    <path clip-path="url(#p28a836effa)" d="M 157.252344 150.97897 &#xA;L 545.626085 150.97897 &#xA;L 545.626085 176.818391 &#xA;L 157.252344 176.818391 &#xA;z&#xA;" style="fill:#ffffff;opacity:0.01;"/>
   </g>
   <g id="invisibleRectangle_KEGG:hsa04360" style="cursor: pointer;">
    <path clip-path="url(#p28a836effa)" d="M 157.252344 122.268503 &#xA;L 545.626085 122.268503 &#xA;L 545.626085 148.107924 &#xA;L 157.252344 148.107924 &#xA;z&#xA;" style="fill:#ffffff;opacity:0.01;"/>
   </g>
   <g id="invisibleRectangle_KEGG:hsa04722" style="cursor: pointer;">
    <path clip-path="url(#p28a836effa)" d="M 157.252344 93.558035 &#xA;L 545.626085 93.558035 &#xA;L 545.626085 119.397456 &#xA;L 157.252344 119.397456 &#xA;z&#xA;" style="fill:#ffffff;opacity:0.01;"/>
   </g>
   <g id="invisibleRectangle_KEGG:hsa04664" style="cursor: pointer;">
    <path clip-path="url(#p28a836effa)" d="M 157.252344 64.847567 &#xA;L 545.626085 64.847567 &#xA;L 545.626085 90.686988 &#xA;L 157.252344 90.686988 &#xA;z&#xA;" style="fill:#ffffff;opacity:0.01;"/>
   </g>
   <g id="invisibleRectangle_KEGG:hsa04012" style="cursor: pointer;">
    <path clip-path="url(#p28a836effa)" d="M 157.252344 36.137099 &#xA;L 545.626085 36.137099 &#xA;L 545.626085 61.97652 &#xA;L 157.252344 61.97652 &#xA;z&#xA;" style="fill:#ffffff;opacity:0.01;"/>
   </g>
  </g>
  <g id="axes_2">
   <g id="patch_13">
    <path d="M 552.106085 337.022801 &#xA;L 649.19952 337.022801 &#xA;L 649.19952 21.207656 &#xA;L 552.106085 21.207656 &#xA;z&#xA;" style="fill:none;"/>
   </g>
   <g id="patch_14">
    <path clip-path="url(#pb24d1606a8)" d="M 552.106085 320.514282 &#xA;L 564.242764 320.514282 &#xA;L 564.242764 294.387757 &#xA;L 552.106085 294.387757 &#xA;z&#xA;" style="fill:#2fa4c2;"/>
   </g>
   <g id="patch_15">
    <path clip-path="url(#pb24d1606a8)" d="M 552.106085 291.803815 &#xA;L 564.242764 291.803815 &#xA;L 564.242764 265.677289 &#xA;L 552.106085 265.677289 &#xA;z&#xA;" style="fill:#5fc1c0;"/>
   </g>
   <g id="patch_16">
    <path clip-path="url(#pb24d1606a8)" d="M 552.106085 263.093347 &#xA;L 564.242764 263.093347 &#xA;L 564.242764 236.966821 &#xA;L 552.106085 236.966821 &#xA;z&#xA;" style="fill:#5fc1c0;"/>
   </g>
   <g id="patch_17">
    <path clip-path="url(#pb24d1606a8)" d="M 552.106085 234.382879 &#xA;L 564.242764 234.382879 &#xA;L 564.242764 208.256353 &#xA;L 552.106085 208.256353 &#xA;z&#xA;" style="fill:#234da0;"/>
   </g>
   <g id="patch_18">
    <path clip-path="url(#pb24d1606a8)" d="M 552.106085 205.672411 &#xA;L 564.242764 205.672411 &#xA;L 564.242764 179.545886 &#xA;L 552.106085 179.545886 &#xA;z&#xA;" style="fill:#1f7ab5;"/>
   </g>
   <g id="patch_19">
    <path clip-path="url(#pb24d1606a8)" d="M 552.106085 176.961944 &#xA;L 564.242764 176.961944 &#xA;L 564.242764 150.835418 &#xA;L 552.106085 150.835418 &#xA;z&#xA;" style="fill:#2fa4c2;"/>
   </g>
   <g id="patch_20">
    <path clip-path="url(#pb24d1606a8)" d="M 552.106085 148.251476 &#xA;L 564.242764 148.251476 &#xA;L 564.242764 122.12495 &#xA;L 552.106085 122.12495 &#xA;z&#xA;" style="fill:#d6efb3;"/>
   </g>
   <g id="patch_21">
    <path clip-path="url(#pb24d1606a8)" d="M 552.106085 119.541008 &#xA;L 564.242764 119.541008 &#xA;L 564.242764 93.414483 &#xA;L 552.106085 93.414483 &#xA;z&#xA;" style="fill:#d6efb3;"/>
   </g>
   <g id="patch_22">
    <path clip-path="url(#pb24d1606a8)" d="M 552.106085 90.83054 &#xA;L 564.242764 90.83054 &#xA;L 564.242764 64.704015 &#xA;L 552.106085 64.704015 &#xA;z&#xA;" style="fill:#5fc1c0;"/>
   </g>
   <g id="patch_23">
    <path clip-path="url(#pb24d1606a8)" d="M 552.106085 62.120073 &#xA;L 564.242764 62.120073 &#xA;L 564.242764 35.993547 &#xA;L 552.106085 35.993547 &#xA;z&#xA;" style="fill:#d6efb3;"/>
   </g>
   <g id="matplotlib.axis_3"/>
   <g id="matplotlib.axis_4"/>
   <g id="text_18">
    <text style="font-family:Arial;font-size:9px;font-stretch:normal;font-style:normal;font-weight:normal;" transform="translate(578.708194 222.381719)rotate(-90)">Groups at similarity 0.8</text>
   </g>
  </g>
  <g id="axes_3">
   <g id="patch_24">
    <path d="M 587.39976 130.19976 &#xA;L 652.19976 130.19976 &#xA;L 652.19976 22.19976 &#xA;L 587.39976 22.19976 &#xA;z&#xA;" style="fill:none;"/>
   </g>
   <g id="PathCollection_2">
    <defs>
     <path d="M -70.710678 70.710678 &#xA;L 70.710678 70.710678 &#xA;L 70.710678 -70.710678 &#xA;L -70.710678 -70.710678 &#xA;z&#xA;" id="mf5c636d36c" style="stroke:#ffffff;stroke-opacity:0.6;"/>
    </defs>
    <g clip-path="url(#p1ae574d9db)">
     <use style="fill:#ffffff;fill-opacity:0.6;stroke:#ffffff;stroke-opacity:0.6;" x="619.79976" xlink:href="#mf5c636d36c" y="76.19976"/>
    </g>
   </g>
   <g id="matplotlib.axis_5">
    <g id="xtick_6"/>
    <g id="xtick_7"/>
    <g id="xtick_8"/>
   </g>
   <g id="matplotlib.axis_6">
    <g id="ytick_11"/>
    <g id="ytick_12"/>
    <g id="ytick_13"/>
    <g id="ytick_14"/>
    <g id="ytick_15"/>
   </g>
  </g>
  <g id="axes_4">
   <g id="patch_25">
    <path d="M 593.87976 126.59976 &#xA;L 604.67976 126.59976 &#xA;L 604.67976 40.19976 &#xA;L 593.87976 40.19976 &#xA;z&#xA;" style="fill:none;"/>
   </g>
   <g id="patch_26">
    <path clip-path="url(#p0cbabbcf3a)" d="M 593.87976 40.19976 &#xA;L 593.87976 54.59976 &#xA;L 593.87976 112.19976 &#xA;L 593.87976 126.59976 &#xA;L 604.67976 126.59976 &#xA;L 604.67976 112.19976 &#xA;L 604.67976 54.59976 &#xA;L 604.67976 40.19976 &#xA;L 604.67976 40.19976 &#xA;z&#xA;" style="fill:#ffffff;stroke:#ffffff;stroke-linejoin:miter;stroke-width:0.01;"/>
   </g>
   <g id="QuadMesh_1">
    <path clip-path="url(#p0cbabbcf3a)" d="M 593.87976 40.19976 &#xA;L 604.67976 40.19976 &#xA;L 604.67976 54.59976 &#xA;L 593.87976 54.59976 &#xA;L 593.87976 40.19976 &#xA;" style="fill:#d6efb3;"/>
    <path clip-path="url(#p0cbabbcf3a)" d="M 593.87976 54.59976 &#xA;L 604.67976 54.59976 &#xA;L 604.67976 68.99976 &#xA;L 593.87976 68.99976 &#xA;L 593.87976 54.59976 &#xA;" style="fill:#a0dab8;"/>
    <path clip-path="url(#p0cbabbcf3a)" d="M 593.87976 68.99976 &#xA;L 604.67976 68.99976 &#xA;L 604.67976 83.39976 &#xA;L 593.87976 83.39976 &#xA;L 593.87976 68.99976 &#xA;" style="fill:#5fc1c0;"/>
    <path clip-path="url(#p0cbabbcf3a)" d="M 593.87976 83.39976 &#xA;L 604.67976 83.39976 &#xA;L 604.67976 97.79976 &#xA;L 593.87976 97.79976 &#xA;L 593.87976 83.39976 &#xA;" style="fill:#2fa4c2;"/>
    <path clip-path="url(#p0cbabbcf3a)" d="M 593.87976 97.79976 &#xA;L 604.67976 97.79976 &#xA;L 604.67976 112.19976 &#xA;L 593.87976 112.19976 &#xA;L 593.87976 97.79976 &#xA;" style="fill:#1f7ab5;"/>
    <path clip-path="url(#p0cbabbcf3a)" d="M 593.87976 112.19976 &#xA;L 604.67976 112.19976 &#xA;L 604.67976 126.59976 &#xA;L 593.87976 126.59976 &#xA;L 593.87976 112.19976 &#xA;" style="fill:#234da0;"/>
   </g>
   <g id="matplotlib.axis_7"/>
   <g id="matplotlib.axis_8">
    <g id="ytick_16">
     <g id="line2d_41">
      <defs>
       <path d="M 0 0 &#xA;L 3.5 0 &#xA;" id="m2c8739a47c" style="stroke:#000000;stroke-width:0.8;"/>
      </defs>
      <g>
       <use style="stroke:#000000;stroke-width:0.8;" x="604.67976" xlink:href="#m2c8739a47c" y="119.39976"/>
      </g>
     </g>
     <g id="text_19">
      <text style="font-family:Arial;font-size:9px;font-stretch:normal;font-style:normal;font-weight:normal;text-anchor:start;" transform="rotate(-0, 611.67976, 122.620776)" x="611.67976" y="122.620776">1.0e-23</text>
     </g>
    </g>
    <g id="ytick_17">
     <g id="line2d_42">
      <g>
       <use style="stroke:#000000;stroke-width:0.8;" x="604.67976" xlink:href="#m2c8739a47c" y="104.99976"/>
      </g>
     </g>
     <g id="text_20">
      <text style="font-family:Arial;font-size:9px;font-stretch:normal;font-style:normal;font-weight:normal;text-anchor:start;" transform="rotate(-0, 611.67976, 108.220776)" x="611.67976" y="108.220776">1.0e-25</text>
     </g>
    </g>
    <g id="ytick_18">
     <g id="line2d_43">
      <g>
       <use style="stroke:#000000;stroke-width:0.8;" x="604.67976" xlink:href="#m2c8739a47c" y="90.59976"/>
      </g>
     </g>
     <g id="text_21">
      <text style="font-family:Arial;font-size:9px;font-stretch:normal;font-style:normal;font-weight:normal;text-anchor:start;" transform="rotate(-0, 611.67976, 93.820776)" x="611.67976" y="93.820776">1.0e-27</text>
     </g>
    </g>
    <g id="ytick_19">
     <g id="line2d_44">
      <g>
       <use style="stroke:#000000;stroke-width:0.8;" x="604.67976" xlink:href="#m2c8739a47c" y="76.19976"/>
      </g>
     </g>
     <g id="text_22">
      <text style="font-family:Arial;font-size:9px;font-stretch:normal;font-style:normal;font-weight:normal;text-anchor:start;" transform="rotate(-0, 611.67976, 79.420776)" x="611.67976" y="79.420776">1.0e-29</text>
     </g>
    </g>
    <g id="ytick_20">
     <g id="line2d_45">
      <g>
       <use style="stroke:#000000;stroke-width:0.8;" x="604.67976" xlink:href="#m2c8739a47c" y="61.79976"/>
      </g>
     </g>
     <g id="text_23">
      <text style="font-family:Arial;font-size:9px;font-stretch:normal;font-style:normal;font-weight:normal;text-anchor:start;" transform="rotate(-0, 611.67976, 65.020776)" x="611.67976" y="65.020776">1.0e-30</text>
     </g>
    </g>
    <g id="ytick_21">
     <g id="line2d_46">
      <g>
       <use style="stroke:#000000;stroke-width:0.8;" x="604.67976" xlink:href="#m2c8739a47c" y="47.39976"/>
      </g>
     </g>
     <g id="text_24">
      <text style="font-family:Arial;font-size:9px;font-stretch:normal;font-style:normal;font-weight:normal;text-anchor:start;" transform="rotate(-0, 611.67976, 50.620776)" x="611.67976" y="50.620776">1.0e-32</text>
     </g>
    </g>
   </g>
   <g id="LineCollection_1"/>
   <g id="patch_27">
    <path d="M 593.87976 40.19976 &#xA;L 593.87976 54.59976 &#xA;L 593.87976 112.19976 &#xA;L 593.87976 126.59976 &#xA;L 604.67976 126.59976 &#xA;L 604.67976 112.19976 &#xA;L 604.67976 54.59976 &#xA;L 604.67976 40.19976 &#xA;z&#xA;" style="fill:none;"/>
   </g>
   <g id="text_25">
    <text style="font-family:Arial;font-size:9px;font-stretch:normal;font-style:normal;font-weight:normal;text-anchor:middle;" transform="rotate(-0, 599.27976, 34.19976)" x="599.27976" y="34.19976">FDR</text>
   </g>
  </g>
  <g id="axes_5">
   <g id="patch_28">
    <path d="M 587.39976 239.84136 &#xA;L 648.95976 239.84136 &#xA;L 648.95976 139.37544 &#xA;L 587.39976 139.37544 &#xA;z&#xA;" style="fill:none;"/>
   </g>
   <g id="PathCollection_3">
    <g clip-path="url(#p659a61b40a)">
     <use style="fill:#ffffff;fill-opacity:0.6;stroke:#ffffff;stroke-opacity:0.6;" x="618.17976" xlink:href="#mf5c636d36c" y="189.6084"/>
    </g>
   </g>
   <g id="matplotlib.axis_9">
    <g id="xtick_9"/>
    <g id="xtick_10"/>
    <g id="xtick_11"/>
   </g>
   <g id="matplotlib.axis_10">
    <g id="ytick_22"/>
    <g id="ytick_23"/>
    <g id="ytick_24"/>
    <g id="ytick_25"/>
    <g id="ytick_26"/>
   </g>
  </g>
  <g id="axes_6">
   <g id="PathCollection_4">
    <defs>
     <path d="M 0 7.071068 &#xA;C 1.875269 7.071068 3.673985 6.326016 5 5 &#xA;C 6.326016 3.673985 7.071068 1.875269 7.071068 0 &#xA;C 7.071068 -1.875269 6.326016 -3.673985 5 -5 &#xA;C 3.673985 -6.326016 1.875269 -7.071068 0 -7.071068 &#xA;C -1.875269 -7.071068 -3.673985 -6.326016 -5 -5 &#xA;C -6.326016 -3.673985 -7.071068 -1.875269 -7.071068 0 &#xA;C -7.071068 1.875269 -6.326016 3.673985 -5 5 &#xA;C -3.673985 6.326016 -1.875269 7.071068 0 7.071068 &#xA;z&#xA;" id="m25b6d6ea62" style="stroke:#b5c2a4;stroke-width:2.2;"/>
    </defs>
    <g clip-path="url(#p5fe6d306f1)">
     <use style="fill:#d6efb3;stroke:#b5c2a4;stroke-width:2.2;" x="610.07976" xlink:href="#m25b6d6ea62" y="166.288375"/>
    </g>
   </g>
   <g id="PathCollection_5">
    <defs>
     <path d="M 0 8.944272 &#xA;C 2.372049 8.944272 4.647264 8.001847 6.324555 6.324555 &#xA;C 8.001847 4.647264 8.944272 2.372049 8.944272 0 &#xA;C 8.944272 -2.372049 8.001847 -4.647264 6.324555 -6.324555 &#xA;C 4.647264 -8.001847 2.372049 -8.944272 0 -8.944272 &#xA;C -2.372049 -8.944272 -4.647264 -8.001847 -6.324555 -6.324555 &#xA;C -8.001847 -4.647264 -8.944272 -2.372049 -8.944272 0 &#xA;C -8.944272 2.372049 -8.001847 4.647264 -6.324555 6.324555 &#xA;C -4.647264 8.001847 -2.372049 8.944272 0 8.944272 &#xA;z&#xA;" id="m9a893ec000" style="stroke:#b5c2a4;stroke-width:2.2;"/>
    </defs>
    <g clip-path="url(#p5fe6d306f1)">
     <use style="fill:#d6efb3;stroke:#b5c2a4;stroke-width:2.2;" x="610.07976" xlink:href="#m9a893ec000" y="190.185433"/>
    </g>
   </g>
   <g id="PathCollection_6">
    <defs>
     <path d="M 0 11.401754 &#xA;C 3.023781 11.401754 5.924122 10.200393 8.062258 8.062258 &#xA;C 10.200393 5.924122 11.401754 3.023781 11.401754 0 &#xA;C 11.401754 -3.023781 10.200393 -5.924122 8.062258 -8.062258 &#xA;C 5.924122 -10.200393 3.023781 -11.401754 0 -11.401754 &#xA;C -3.023781 -11.401754 -5.924122 -10.200393 -8.062258 -8.062258 &#xA;C -10.200393 -5.924122 -11.401754 -3.023781 -11.401754 0 &#xA;C -11.401754 3.023781 -10.200393 5.924122 -8.062258 8.062258 &#xA;C -5.924122 10.200393 -3.023781 11.401754 0 11.401754 &#xA;z&#xA;" id="m8c92b33d6a" style="stroke:#b5c2a4;stroke-width:2.2;"/>
    </defs>
    <g clip-path="url(#p5fe6d306f1)">
     <use style="fill:#d6efb3;stroke:#b5c2a4;stroke-width:2.2;" x="610.07976" xlink:href="#m8c92b33d6a" y="217.933132"/>
    </g>
   </g>
   <g id="text_26">
    <text style="font-family:Arial;font-size:9px;font-stretch:normal;font-style:normal;font-weight:normal;text-anchor:start;" transform="rotate(-0, 626.27976, 169.744862)" x="626.27976" y="169.744862">15</text>
   </g>
   <g id="text_27">
    <text style="font-family:Arial;font-size:9px;font-stretch:normal;font-style:normal;font-weight:normal;text-anchor:start;" transform="rotate(-0, 626.27976, 193.64192)" x="626.27976" y="193.64192">20</text>
   </g>
   <g id="text_28">
    <text style="font-family:Arial;font-size:9px;font-stretch:normal;font-style:normal;font-weight:normal;text-anchor:start;" transform="rotate(-0, 626.27976, 221.389619)" x="626.27976" y="221.389619">25</text>
   </g>
   <g id="text_29">
    <text style="font-family:Arial;font-size:9px;font-stretch:normal;font-style:normal;font-weight:normal;text-anchor:middle;" transform="rotate(-0, 616.55976, 150.11976)" x="616.55976" y="150.11976">Gene count</text>
   </g>
  </g>
 </g>
 <defs>
  <clipPath id="p28a836effa">
   <rect height="315.815145" width="388.373741" x="157.252344" y="21.207656"/>
  </clipPath>
  <clipPath id="pb24d1606a8">
   <rect height="315.815145" width="97.093435" x="552.106085" y="21.207656"/>
  </clipPath>
  <clipPath id="p1ae574d9db">
   <rect height="108" width="64.8" x="587.39976" y="22.19976"/>
  </clipPath>
  <clipPath id="p0cbabbcf3a">
   <rect height="86.4" width="10.8" x="593.87976" y="40.19976"/>
  </clipPath>
  <clipPath id="p659a61b40a">
   <rect height="100.46592" width="61.56" x="587.39976" y="139.37544"/>
  </clipPath>
  <clipPath id="p5fe6d306f1">
   <rect height="146.88" width="32.4" x="593.87976" y="156.11976"/>
  </clipPath>
 </defs>
</svg>