<svg id="enrichment_category_graph_svg" height="368.39952pt" version="1.1" viewBox="0 0 659.39976 368.39952" width="659.39976pt" xmlns="http://www.w3.org/2000/svg" xmlns:xlink="http://www.w3.org/1999/xlink">
 <metadata>
  <rdf:rdf xmlns:cc="http://creativecommons.org/ns#" xmlns:dc="http://purl.org/dc/elements/1.1/" xmlns:rdf="http://www.w3.org/1999/02/22-rdf-syntax-ns#">
   <cc:work>
    <dc:type rdf:resource="http://purl.org/dc/dcmitype/StillImage"/>
    <dc:date>2025-09-30T16:15:24.338877</dc:date>
    <dc:format>image/svg+xml</dc:format>
    <dc:creator>
     <cc:agent>
      <dc:title>Matplotlib v3.4.2, https://matplotlib.org/</dc:title>
     </cc:agent>
    </dc:creator>
   </cc:work>
  </rdf:rdf>
 </metadata>
 <defs>
  <style type="text/css">*{stroke-linecap:butt;stroke-linejoin:round;}</style>
 </defs>
 <g id="figure_1">
  <g id="patch_1">
   <path d="M 0 368.39952 &#xA;L 659.39976 368.39952 &#xA;L 659.39976 0 &#xA;L 0 0 &#xA;z&#xA;" style="fill:none;"/>
  </g>
  <g id="axes_1">
   <g id="patch_2">
    <path d="M 171.1475 337.022801 &#xA;L 548.405116 337.022801 &#xA;L 548.405116 21.073594 &#xA;L 171.1475 21.073594 &#xA;z&#xA;" style="fill:none;"/>
   </g>
   <g id="matplotlib.axis_1">
    <g id="xtick_1">
     <g id="line2d_1">
      <path clip-path="url(#p0c2a65cfad)" d="M 238.720987 337.022801 &#xA;L 238.720987 21.073594 &#xA;" style="fill:none;stroke:#d3d3d3;stroke-dasharray:2.22,0.96;stroke-dashoffset:0;stroke-width:0.6;"/>
     </g>
     <g id="line2d_2"/>
     <g id="text_1">
      <text style="font-family:Arial;font-size:9px;font-stretch:normal;font-style:normal;font-weight:normal;text-anchor:middle;" transform="rotate(-0, 238.720987, 346.964832)" x="238.720987" y="346.964832">2</text>
     </g>
    </g>
    <g id="xtick_2">
     <g id="line2d_3">
      <path clip-path="url(#p0c2a65cfad)" d="M 311.426886 337.022801 &#xA;L 311.426886 21.073594 &#xA;" style="fill:none;stroke:#d3d3d3;stroke-dasharray:2.22,0.96;stroke-dashoffset:0;stroke-width:0.6;"/>
     </g>
     <g id="line2d_4"/>
     <g id="text_2">
      <text style="font-family:Arial;font-size:9px;font-stretch:normal;font-style:normal;font-weight:normal;text-anchor:middle;" transform="rotate(-0, 311.426886, 346.964832)" x="311.426886" y="346.964832">4</text>
     </g>
    </g>
    <g id="xtick_3">
     <g id="line2d_5">
      <path clip-path="url(#p0c2a65cfad)" d="M 384.132784 337.022801 &#xA;L 384.132784 21.073594 &#xA;" style="fill:none;stroke:#d3d3d3;stroke-dasharray:2.22,0.96;stroke-dashoffset:0;stroke-width:0.6;"/>
     </g>
     <g id="line2d_6"/>
     <g id="text_3">
      <text style="font-family:Arial;font-size:9px;font-stretch:normal;font-style:normal;font-weight:normal;text-anchor:middle;" transform="rotate(-0, 384.132784, 346.964832)" x="384.132784" y="346.964832">6</text>
     </g>
    </g>
    <g id="xtick_4">
     <g id="line2d_7">
      <path clip-path="url(#p0c2a65cfad)" d="M 456.838682 337.022801 &#xA;L 456.838682 21.073594 &#xA;" style="fill:none;stroke:#d3d3d3;stroke-dasharray:2.22,0.96;stroke-dashoffset:0;stroke-width:0.6;"/>
     </g>
     <g id="line2d_8"/>
     <g id="text_4">
      <text style="font-family:Arial;font-size:9px;font-stretch:normal;font-style:normal;font-weight:normal;text-anchor:middle;" transform="rotate(-0, 456.838682, 346.964832)" x="456.838682" y="346.964832">8</text>
     </g>
    </g>
    <g id="xtick_5">
     <g id="line2d_9">
      <path clip-path="url(#p0c2a65cfad)" d="M 529.544581 337.022801 &#xA;L 529.544581 21.073594 &#xA;" style="fill:none;stroke:#d3d3d3;stroke-dasharray:2.22,0.96;stroke-dashoffset:0;stroke-width:0.6;"/>
     </g>
     <g id="line2d_10"/>
     <g id="text_5">
      <text style="font-family:Arial;font-size:9px;font-stretch:normal;font-style:normal;font-weight:normal;text-anchor:middle;" transform="rotate(-0, 529.544581, 346.964832)" x="529.544581" y="346.964832">10</text>
     </g>
    </g>
    <g id="text_6">
     <text style="font-family:Arial;font-size:9px;font-stretch:normal;font-style:normal;font-weight:normal;text-anchor:middle;" transform="rotate(-0, 359.776308, 359.305301)" x="359.776308" y="359.305301">Signal</text>
    </g>
   </g>
   <g id="matplotlib.axis_2">
    <g id="ytick_1">
     <g id="line2d_11"/>
     <g id="text_7">
      <text style="font-family:Arial;font-size:9px;font-stretch:normal;font-style:normal;font-weight:normal;text-anchor:end;" transform="rotate(-0, 167.6475, 53.072108)" x="167.6475" y="53.072108">Semaphorin interactions</text>
     </g>
    </g>
    <g id="ytick_2">
     <g id="line2d_12"/>
     <g id="text_8">
      <text style="font-family:Arial;font-size:9px;font-stretch:normal;font-style:normal;font-weight:normal;text-anchor:end;" transform="rotate(-0, 167.6475, 81.797576)" x="167.6475" y="81.797576">Other semaphorin interactions</text>
     </g>
    </g>
    <g id="ytick_3">
     <g id="line2d_13"/>
     <g id="text_9">
      <text style="font-family:Arial;font-size:9px;font-stretch:normal;font-style:normal;font-weight:normal;" transform="translate(14.574375 106.349294)">SEMA3A-Plexin repulsion signaling by</text>
      <text style="font-family:Arial;font-size:9px;font-stretch:normal;font-style:normal;font-weight:normal;" transform="translate(60.578437 115.97395)">inhibiting Integrin adhesion</text>
     </g>
    </g>
    <g id="ytick_4">
     <g id="line2d_14"/>
     <g id="text_10">
      <text style="font-family:Arial;font-size:9px;font-stretch:normal;font-style:normal;font-weight:normal;text-anchor:end;" transform="rotate(-0, 167.6475, 139.18523)" x="167.6475" y="139.18523">Axon guidance</text>
     </g>
    </g>
    <g id="ytick_5">
     <g id="line2d_15"/>
     <g id="text_11">
      <text style="font-family:Arial;font-size:9px;font-stretch:normal;font-style:normal;font-weight:normal;text-anchor:end;" transform="rotate(-0, 167.6475, 167.962729)" x="167.6475" y="167.962729">CRMPs in Sema3A signaling</text>
     </g>
    </g>
    <g id="ytick_6">
     <g id="line2d_16"/>
     <g id="text_12">
      <text style="font-family:Arial;font-size:9px;font-stretch:normal;font-style:normal;font-weight:normal;text-anchor:end;" transform="rotate(-0, 167.6475, 196.685384)" x="167.6475" y="196.685384">Sema3A PAK dependent Axon repulsion</text>
     </g>
    </g>
    <g id="ytick_7">
     <g id="line2d_17"/>
     <g id="text_13">
      <text style="font-family:Arial;font-size:9px;font-stretch:normal;font-style:normal;font-weight:normal;" transform="translate(29.078437 221.237805)">Sema4D mediated inhibition of cell</text>
      <text style="font-family:Arial;font-size:9px;font-stretch:normal;font-style:normal;font-weight:normal;" transform="translate(66.097969 230.756993)">attachment and migration</text>
     </g>
    </g>
    <g id="ytick_8">
     <g id="line2d_18"/>
     <g id="text_14">
      <text style="font-family:Arial;font-size:9px;font-stretch:normal;font-style:normal;font-weight:normal;text-anchor:end;" transform="rotate(-0, 167.6475, 254.133507)" x="167.6475" y="254.133507">RHOD GTPase cycle</text>
     </g>
    </g>
    <g id="ytick_9">
     <g id="line2d_19"/>
     <g id="text_15">
      <text style="font-family:Arial;font-size:9px;font-stretch:normal;font-style:normal;font-weight:normal;" transform="translate(25.576875 278.685225)">Sema4D induced cell migration and</text>
      <text style="font-family:Arial;font-size:9px;font-stretch:normal;font-style:normal;font-weight:normal;" transform="translate(82.605937 288.309881)">growth-cone collapse</text>
     </g>
    </g>
    <g id="ytick_10">
     <g id="line2d_20"/>
     <g id="text_16">
      <text style="font-family:Arial;font-size:9px;font-stretch:normal;font-style:normal;font-weight:normal;" transform="translate(10.577812 307.460615)">Neurophilin interactions with VEGF and</text>
      <text style="font-family:Arial;font-size:9px;font-stretch:normal;font-style:normal;font-weight:normal;" transform="translate(136.643906 316.979802)">VEGFR</text>
     </g>
    </g>
   </g>
   <g id="patch_3">
    <path clip-path="url(#p0c2a65cfad)" d="M 171.1475 294.513272 &#xA;L 548.405116 294.513272 &#xA;L 548.405116 320.363661 &#xA;L 171.1475 320.363661 &#xA;z&#xA;" style="fill:#234da0;opacity:0.1;"/>
   </g>
   <g id="patch_4">
    <path clip-path="url(#p0c2a65cfad)" d="M 171.1475 265.790616 &#xA;L 548.405116 265.790616 &#xA;L 548.405116 291.641006 &#xA;L 171.1475 291.641006 &#xA;z&#xA;" style="fill:#234da0;opacity:0.1;"/>
   </g>
   <g id="patch_5">
    <path clip-path="url(#p0c2a65cfad)" d="M 171.1475 237.067961 &#xA;L 548.405116 237.067961 &#xA;L 548.405116 262.918351 &#xA;L 171.1475 262.918351 &#xA;z&#xA;" style="fill:#234da0;opacity:0.1;"/>
   </g>
   <g id="patch_6">
    <path clip-path="url(#p0c2a65cfad)" d="M 171.1475 208.345306 &#xA;L 548.405116 208.345306 &#xA;L 548.405116 234.195696 &#xA;L 171.1475 234.195696 &#xA;z&#xA;" style="fill:#1f7ab5;opacity:0.1;"/>
   </g>
   <g id="patch_7">
    <path clip-path="url(#p0c2a65cfad)" d="M 171.1475 150.899995 &#xA;L 548.405116 150.899995 &#xA;L 548.405116 205.47304 &#xA;L 171.1475 205.47304 &#xA;z&#xA;" style="fill:#1f7ab5;opacity:0.1;"/>
   </g>
   <g id="patch_8">
    <path clip-path="url(#p0c2a65cfad)" d="M 171.1475 122.17734 &#xA;L 548.405116 122.17734 &#xA;L 548.405116 148.02773 &#xA;L 171.1475 148.02773 &#xA;z&#xA;" style="fill:#a0dab8;opacity:0.1;"/>
   </g>
   <g id="patch_9">
    <path clip-path="url(#p0c2a65cfad)" d="M 171.1475 93.454685 &#xA;L 548.405116 93.454685 &#xA;L 548.405116 119.305075 &#xA;L 171.1475 119.305075 &#xA;z&#xA;" style="fill:#2fa4c2;opacity:0.1;"/>
   </g>
   <g id="patch_10">
    <path clip-path="url(#p0c2a65cfad)" d="M 171.1475 64.73203 &#xA;L 548.405116 64.73203 &#xA;L 548.405116 90.582419 &#xA;L 171.1475 90.582419 &#xA;z&#xA;" style="fill:#5fc1c0;opacity:0.1;"/>
   </g>
   <g id="patch_11">
    <path clip-path="url(#p0c2a65cfad)" d="M 171.1475 36.009374 &#xA;L 548.405116 36.009374 &#xA;L 548.405116 61.859764 &#xA;L 171.1475 61.859764 &#xA;z&#xA;" style="fill:#d6efb3;opacity:0.1;"/>
   </g>
   <g id="horizontalLine_RCTM:HSA-373755">
    <path data-original-stroke="grey" clip-path="url(#p0c2a65cfad)" d="M 171.1475 49.796249 &#xA;L 528.453992 49.796249 &#xA;" style="fill:none;stroke:#d6efb3;stroke-linecap:square;stroke-width:3;"/>
   </g>
   <g id="horizontalLine_RCTM:HSA-416700">
    <path data-original-stroke="grey" clip-path="url(#p0c2a65cfad)" d="M 171.1475 78.518904 &#xA;L 475.378686 78.518904 &#xA;" style="fill:none;stroke:#5fc1c0;stroke-linecap:square;stroke-width:3;"/>
   </g>
   <g id="horizontalLine_RCTM:HSA-399955">
    <path data-original-stroke="grey" clip-path="url(#p0c2a65cfad)" d="M 171.1475 107.241559 &#xA;L 384.496313 107.241559 &#xA;" style="fill:none;stroke:#2fa4c2;stroke-linecap:square;stroke-width:3;"/>
   </g>
   <g id="horizontalLine_RCTM:HSA-422475">
    <path data-original-stroke="grey" clip-path="url(#p0c2a65cfad)" d="M 171.1475 135.964215 &#xA;L 305.610414 135.964215 &#xA;" style="fill:none;stroke:#a0dab8;stroke-linecap:square;stroke-width:3;"/>
   </g>
   <g id="horizontalLine_RCTM:HSA-399956">
    <path data-original-stroke="grey" clip-path="url(#p0c2a65cfad)" d="M 171.1475 164.68687 &#xA;L 297.249235 164.68687 &#xA;" style="fill:none;stroke:#1f7ab5;stroke-linecap:square;stroke-width:3;"/>
   </g>
   <g id="horizontalLine_RCTM:HSA-399954">
    <path data-original-stroke="grey" clip-path="url(#p0c2a65cfad)" d="M 171.1475 193.409525 &#xA;L 297.249235 193.409525 &#xA;" style="fill:none;stroke:#1f7ab5;stroke-linecap:square;stroke-width:3;"/>
   </g>
   <g id="horizontalLine_RCTM:HSA-416550">
    <path data-original-stroke="grey" clip-path="url(#p0c2a65cfad)" d="M 171.1475 222.13218 &#xA;L 235.812751 222.13218 &#xA;" style="fill:none;stroke:#1f7ab5;stroke-linecap:square;stroke-width:3;"/>
   </g>
   <g id="horizontalLine_RCTM:HSA-9013405">
    <path data-original-stroke="grey" clip-path="url(#p0c2a65cfad)" d="M 171.1475 250.854836 &#xA;L 198.005684 250.854836 &#xA;" style="fill:none;stroke:#234da0;stroke-linecap:square;stroke-width:3;"/>
   </g>
   <g id="horizontalLine_RCTM:HSA-416572">
    <path data-original-stroke="grey" clip-path="url(#p0c2a65cfad)" d="M 171.1475 279.577491 &#xA;L 196.551566 279.577491 &#xA;" style="fill:none;stroke:#234da0;stroke-linecap:square;stroke-width:3;"/>
   </g>
   <g id="horizontalLine_RCTM:HSA-194306">
    <path data-original-stroke="grey" clip-path="url(#p0c2a65cfad)" d="M 171.1475 308.300146 &#xA;L 191.098624 308.300146 &#xA;" style="fill:none;stroke:#234da0;stroke-linecap:square;stroke-width:3;"/>
   </g>
   <g id="line2d_21">
    <path clip-path="url(#p0c2a65cfad)" d="M 171.1475 49.796249 &#xA;L 528.453992 49.796249 &#xA;" style="fill:none;stroke:#ffffff;stroke-linecap:square;stroke-opacity:0.4;stroke-width:3;"/>
   </g>
   <g id="line2d_22">
    <path clip-path="url(#p0c2a65cfad)" d="M 171.1475 78.518904 &#xA;L 475.378686 78.518904 &#xA;" style="fill:none;stroke:#ffffff;stroke-linecap:square;stroke-opacity:0.4;stroke-width:3;"/>
   </g>
   <g id="line2d_23">
    <path clip-path="url(#p0c2a65cfad)" d="M 171.1475 107.241559 &#xA;L 384.496313 107.241559 &#xA;" style="fill:none;stroke:#ffffff;stroke-linecap:square;stroke-opacity:0.4;stroke-width:3;"/>
   </g>
   <g id="line2d_24">
    <path clip-path="url(#p0c2a65cfad)" d="M 171.1475 135.964215 &#xA;L 305.610414 135.964215 &#xA;" style="fill:none;stroke:#ffffff;stroke-linecap:square;stroke-opacity:0.4;stroke-width:3;"/>
   </g>
   <g id="line2d_25">
    <path clip-path="url(#p0c2a65cfad)" d="M 171.1475 164.68687 &#xA;L 297.249235 164.68687 &#xA;" style="fill:none;stroke:#ffffff;stroke-linecap:square;stroke-opacity:0.4;stroke-width:3;"/>
   </g>
   <g id="line2d_26">
    <path clip-path="url(#p0c2a65cfad)" d="M 171.1475 193.409525 &#xA;L 297.249235 193.409525 &#xA;" style="fill:none;stroke:#ffffff;stroke-linecap:square;stroke-opacity:0.4;stroke-width:3;"/>
   </g>
   <g id="line2d_27">
    <path clip-path="url(#p0c2a65cfad)" d="M 171.1475 222.13218 &#xA;L 235.812751 222.13218 &#xA;" style="fill:none;stroke:#ffffff;stroke-linecap:square;stroke-opacity:0.4;stroke-width:3;"/>
   </g>
   <g id="line2d_28">
    <path clip-path="url(#p0c2a65cfad)" d="M 171.1475 250.854836 &#xA;L 198.005684 250.854836 &#xA;" style="fill:none;stroke:#ffffff;stroke-linecap:square;stroke-opacity:0.4;stroke-width:3;"/>
   </g>
   <g id="line2d_29">
    <path clip-path="url(#p0c2a65cfad)" d="M 171.1475 279.577491 &#xA;L 196.551566 279.577491 &#xA;" style="fill:none;stroke:#ffffff;stroke-linecap:square;stroke-opacity:0.4;stroke-width:3;"/>
   </g>
   <g id="line2d_30">
    <path clip-path="url(#p0c2a65cfad)" d="M 171.1475 308.300146 &#xA;L 191.098624 308.300146 &#xA;" style="fill:none;stroke:#ffffff;stroke-linecap:square;stroke-opacity:0.4;stroke-width:3;"/>
   </g>
   <g id="dots_plot">
    <path id="circle_RCTM:HSA-373755" data-original-stroke="grey" clip-path="url(#p0c2a65cfad)" d="M 528.453992 60.489792 &#xA;C 531.289953 60.489792 534.010142 59.363052 536.015469 57.357725 &#xA;C 538.020796 55.352398 539.147535 52.63221 539.147535 49.796249 &#xA;C 539.147535 46.960288 538.020796 44.2401 536.015469 42.234773 &#xA;C 534.010142 40.229446 531.289953 39.102706 528.453992 39.102706 &#xA;C 525.618031 39.102706 522.897843 40.229446 520.892516 42.234773 &#xA;C 518.887189 44.2401 517.76045 46.960288 517.76045 49.796249 &#xA;C 517.76045 52.63221 518.887189 55.352398 520.892516 57.357725 &#xA;C 522.897843 59.363052 525.618031 60.489792 528.453992 60.489792 &#xA;z&#xA;" style="fill:#d6efb3;stroke:#d6efb3;stroke-width:2.2;"/>
    <path id="circle_RCTM:HSA-416700" data-original-stroke="grey" clip-path="url(#p0c2a65cfad)" d="M 475.378686 87.098596 &#xA;C 477.654047 87.098596 479.836521 86.194586 481.445445 84.585662 &#xA;C 483.054368 82.976739 483.958378 80.794265 483.958378 78.518904 &#xA;C 483.958378 76.243543 483.054368 74.061069 481.445445 72.452146 &#xA;C 479.836521 70.843223 477.654047 69.939212 475.378686 69.939212 &#xA;C 473.103325 69.939212 470.920851 70.843223 469.311928 72.452146 &#xA;C 467.703005 74.061069 466.798995 76.243543 466.798995 78.518904 &#xA;C 466.798995 80.794265 467.703005 82.976739 469.311928 84.585662 &#xA;C 470.920851 86.194586 473.103325 87.098596 475.378686 87.098596 &#xA;z&#xA;" style="fill:#5fc1c0;stroke:#5fc1c0;stroke-width:2.2;"/>
    <path id="circle_RCTM:HSA-399955" data-original-stroke="grey" clip-path="url(#p0c2a65cfad)" d="M 384.496313 114.538185 &#xA;C 386.431401 114.538185 388.287493 113.769366 389.655807 112.401053 &#xA;C 391.02412 111.032739 391.792939 109.176647 391.792939 107.241559 &#xA;C 391.792939 105.306472 391.02412 103.45038 389.655807 102.082066 &#xA;C 388.287493 100.713753 386.431401 99.944934 384.496313 99.944934 &#xA;C 382.561226 99.944934 380.705134 100.713753 379.33682 102.082066 &#xA;C 377.968507 103.45038 377.199688 105.306472 377.199688 107.241559 &#xA;C 377.199688 109.176647 377.968507 111.032739 379.33682 112.401053 &#xA;C 380.705134 113.769366 382.561226 114.538185 384.496313 114.538185 &#xA;z&#xA;" style="fill:#2fa4c2;stroke:#2fa4c2;stroke-width:2.2;"/>
    <path id="circle_RCTM:HSA-422475" data-original-stroke="grey" clip-path="url(#p0c2a65cfad)" d="M 305.610414 148.211663 &#xA;C 308.858475 148.211663 311.973942 146.921195 314.270668 144.624469 &#xA;C 316.567394 142.327742 317.857862 139.212276 317.857862 135.964215 &#xA;C 317.857862 132.716153 316.567394 129.600687 314.270668 127.303961 &#xA;C 311.973942 125.007234 308.858475 123.716766 305.610414 123.716766 &#xA;C 302.362352 123.716766 299.246886 125.007234 296.95016 127.303961 &#xA;C 294.653434 129.600687 293.362965 132.716153 293.362965 135.964215 &#xA;C 293.362965 139.212276 294.653434 142.327742 296.95016 144.624469 &#xA;C 299.246886 146.921195 302.362352 148.211663 305.610414 148.211663 &#xA;z&#xA;" style="fill:#a0dab8;stroke:#a0dab8;stroke-width:2.2;"/>
    <path id="circle_RCTM:HSA-399956" data-original-stroke="grey" clip-path="url(#p0c2a65cfad)" d="M 297.249235 170.848279 &#xA;C 298.88326 170.848279 300.45058 170.199074 301.60601 169.043644 &#xA;C 302.76144 167.888214 303.410645 166.320895 303.410645 164.68687 &#xA;C 303.410645 163.052845 302.76144 161.485526 301.60601 160.330096 &#xA;C 300.45058 159.174666 298.88326 158.525461 297.249235 158.525461 &#xA;C 295.615211 158.525461 294.047891 159.174666 292.892461 160.330096 &#xA;C 291.737031 161.485526 291.087826 163.052845 291.087826 164.68687 &#xA;C 291.087826 166.320895 291.737031 167.888214 292.892461 169.043644 &#xA;C 294.047891 170.199074 295.615211 170.848279 297.249235 170.848279 &#xA;z&#xA;" style="fill:#1f7ab5;stroke:#1f7ab5;stroke-width:2.2;"/>
    <path id="circle_RCTM:HSA-399954" data-original-stroke="grey" clip-path="url(#p0c2a65cfad)" d="M 297.249235 199.570934 &#xA;C 298.88326 199.570934 300.45058 198.921729 301.60601 197.766299 &#xA;C 302.76144 196.610869 303.410645 195.04355 303.410645 193.409525 &#xA;C 303.410645 191.7755 302.76144 190.208181 301.60601 189.052751 &#xA;C 300.45058 187.897321 298.88326 187.248116 297.249235 187.248116 &#xA;C 295.615211 187.248116 294.047891 187.897321 292.892461 189.052751 &#xA;C 291.737031 190.208181 291.087826 191.7755 291.087826 193.409525 &#xA;C 291.087826 195.04355 291.737031 196.610869 292.892461 197.766299 &#xA;C 294.047891 198.921729 295.615211 199.570934 297.249235 199.570934 &#xA;z&#xA;" style="fill:#1f7ab5;stroke:#1f7ab5;stroke-width:2.2;"/>
    <path id="circle_RCTM:HSA-416550" data-original-stroke="grey" clip-path="url(#p0c2a65cfad)" d="M 235.812751 226.895077 &#xA;C 237.075886 226.895077 238.287457 226.393228 239.180628 225.500057 &#xA;C 240.073799 224.606886 240.575648 223.395315 240.575648 222.13218 &#xA;C 240.575648 220.869045 240.073799 219.657475 239.180628 218.764304 &#xA;C 238.287457 217.871132 237.075886 217.369284 235.812751 217.369284 &#xA;C 234.549616 217.369284 233.338046 217.871132 232.444875 218.764304 &#xA;C 231.551704 219.657475 231.049855 220.869045 231.049855 222.13218 &#xA;C 231.049855 223.395315 231.551704 224.606886 232.444875 225.500057 &#xA;C 233.338046 226.393228 234.549616 226.895077 235.812751 226.895077 &#xA;z&#xA;" style="fill:#1f7ab5;stroke:#1f7ab5;stroke-width:2.2;"/>
    <path id="circle_RCTM:HSA-9013405" data-original-stroke="grey" clip-path="url(#p0c2a65cfad)" d="M 198.005684 255.617732 &#xA;C 199.268819 255.617732 200.48039 255.115883 201.373561 254.222712 &#xA;C 202.266732 253.329541 202.768581 252.117971 202.768581 250.854836 &#xA;C 202.768581 249.591701 202.266732 248.38013 201.373561 247.486959 &#xA;C 200.48039 246.593788 199.268819 246.091939 198.005684 246.091939 &#xA;C 196.742549 246.091939 195.530979 246.593788 194.637808 247.486959 &#xA;C 193.744636 248.38013 193.242788 249.591701 193.242788 250.854836 &#xA;C 193.242788 252.117971 193.744636 253.329541 194.637808 254.222712 &#xA;C 195.530979 255.115883 196.742549 255.617732 198.005684 255.617732 &#xA;z&#xA;" style="fill:#234da0;stroke:#234da0;stroke-width:2.2;"/>
    <path id="circle_RCTM:HSA-416572" data-original-stroke="grey" clip-path="url(#p0c2a65cfad)" d="M 196.551566 283.771843 &#xA;C 197.663922 283.771843 198.730867 283.3299 199.517421 282.543346 &#xA;C 200.303975 281.756792 200.745919 280.689846 200.745919 279.577491 &#xA;C 200.745919 278.465136 200.303975 277.39819 199.517421 276.611636 &#xA;C 198.730867 275.825082 197.663922 275.383138 196.551566 275.383138 &#xA;C 195.439211 275.383138 194.372265 275.825082 193.585711 276.611636 &#xA;C 192.799157 277.39819 192.357214 278.465136 192.357214 279.577491 &#xA;C 192.357214 280.689846 192.799157 281.756792 193.585711 282.543346 &#xA;C 194.372265 283.3299 195.439211 283.771843 196.551566 283.771843 &#xA;z&#xA;" style="fill:#234da0;stroke:#234da0;stroke-width:2.2;"/>
    <path id="circle_RCTM:HSA-194306" data-original-stroke="grey" clip-path="url(#p0c2a65cfad)" d="M 191.098624 311.83568 &#xA;C 192.036258 311.83568 192.935616 311.463154 193.598624 310.800146 &#xA;C 194.261632 310.137138 194.634158 309.237781 194.634158 308.300146 &#xA;C 194.634158 307.362511 194.261632 306.463154 193.598624 305.800146 &#xA;C 192.935616 305.137138 192.036258 304.764612 191.098624 304.764612 &#xA;C 190.160989 304.764612 189.261632 305.137138 188.598624 305.800146 &#xA;C 187.935616 306.463154 187.56309 307.362511 187.56309 308.300146 &#xA;C 187.56309 309.237781 187.935616 310.137138 188.598624 310.800146 &#xA;C 189.261632 311.463154 190.160989 311.83568 191.098624 311.83568 &#xA;z&#xA;" style="fill:#234da0;stroke:#234da0;stroke-width:2.2;"/>
   </g>
   <g id="PathCollection_1">
    <path clip-path="url(#p0c2a65cfad)" d="M 528.453992 60.489792 &#xA;C 531.289953 60.489792 534.010142 59.363052 536.015469 57.357725 &#xA;C 538.020796 55.352398 539.147535 52.63221 539.147535 49.796249 &#xA;C 539.147535 46.960288 538.020796 44.2401 536.015469 42.234773 &#xA;C 534.010142 40.229446 531.289953 39.102706 528.453992 39.102706 &#xA;C 525.618031 39.102706 522.897843 40.229446 520.892516 42.234773 &#xA;C 518.887189 44.2401 517.76045 46.960288 517.76045 49.796249 &#xA;C 517.76045 52.63221 518.887189 55.352398 520.892516 57.357725 &#xA;C 522.897843 59.363052 525.618031 60.489792 528.453992 60.489792 &#xA;z&#xA;" style="fill:none;stroke:#808080;stroke-opacity:0.45;stroke-width:2.2;"/>
    <path clip-path="url(#p0c2a65cfad)" d="M 475.378686 87.098596 &#xA;C 477.654047 87.098596 479.836521 86.194586 481.445445 84.585662 &#xA;C 483.054368 82.976739 483.958378 80.794265 483.958378 78.518904 &#xA;C 483.958378 76.243543 483.054368 74.061069 481.445445 72.452146 &#xA;C 479.836521 70.843223 477.654047 69.939212 475.378686 69.939212 &#xA;C 473.103325 69.939212 470.920851 70.843223 469.311928 72.452146 &#xA;C 467.703005 74.061069 466.798995 76.243543 466.798995 78.518904 &#xA;C 466.798995 80.794265 467.703005 82.976739 469.311928 84.585662 &#xA;C 470.920851 86.194586 473.103325 87.098596 475.378686 87.098596 &#xA;z&#xA;" style="fill:none;stroke:#808080;stroke-opacity:0.45;stroke-width:2.2;"/>
    <path clip-path="url(#p0c2a65cfad)" d="M 384.496313 114.538185 &#xA;C 386.431401 114.538185 388.287493 113.769366 389.655807 112.401053 &#xA;C 391.02412 111.032739 391.792939 109.176647 391.792939 107.241559 &#xA;C 391.792939 105.306472 391.02412 103.45038 389.655807 102.082066 &#xA;C 388.287493 100.713753 386.431401 99.944934 384.496313 99.944934 &#xA;C 382.561226 99.944934 380.705134 100.713753 379.33682 102.082066 &#xA;C 377.968507 103.45038 377.199688 105.306472 377.199688 107.241559 &#xA;C 377.199688 109.176647 377.968507 111.032739 379.33682 112.401053 &#xA;C 380.705134 113.769366 382.561226 114.538185 384.496313 114.538185 &#xA;z&#xA;" style="fill:none;stroke:#808080;stroke-opacity:0.45;stroke-width:2.2;"/>
    <path clip-path="url(#p0c2a65cfad)" d="M 305.610414 148.211663 &#xA;C 308.858475 148.211663 311.973942 146.921195 314.270668 144.624469 &#xA;C 316.567394 142.327742 317.857862 139.212276 317.857862 135.964215 &#xA;C 317.857862 132.716153 316.567394 129.600687 314.270668 127.303961 &#xA;C 311.973942 125.007234 308.858475 123.716766 305.610414 123.716766 &#xA;C 302.362352 123.716766 299.246886 125.007234 296.95016 127.303961 &#xA;C 294.653434 129.600687 293.362965 132.716153 293.362965 135.964215 &#xA;C 293.362965 139.212276 294.653434 142.327742 296.95016 144.624469 &#xA;C 299.246886 146.921195 302.362352 148.211663 305.610414 148.211663 &#xA;z&#xA;" style="fill:none;stroke:#808080;stroke-opacity:0.45;stroke-width:2.2;"/>
    <path clip-path="url(#p0c2a65cfad)" d="M 297.249235 170.848279 &#xA;C 298.88326 170.848279 300.45058 170.199074 301.60601 169.043644 &#xA;C 302.76144 167.888214 303.410645 166.320895 303.410645 164.68687 &#xA;C 303.410645 163.052845 302.76144 161.485526 301.60601 160.330096 &#xA;C 300.45058 159.174666 298.88326 158.525461 297.249235 158.525461 &#xA;C 295.615211 158.525461 294.047891 159.174666 292.892461 160.330096 &#xA;C 291.737031 161.485526 291.087826 163.052845 291.087826 164.68687 &#xA;C 291.087826 166.320895 291.737031 167.888214 292.892461 169.043644 &#xA;C 294.047891 170.199074 295.615211 170.848279 297.249235 170.848279 &#xA;z&#xA;" style="fill:none;stroke:#808080;stroke-opacity:0.45;stroke-width:2.2;"/>
    <path clip-path="url(#p0c2a65cfad)" d="M 297.249235 199.570934 &#xA;C 298.88326 199.570934 300.45058 198.921729 301.60601 197.766299 &#xA;C 302.76144 196.610869 303.410645 195.04355 303.410645 193.409525 &#xA;C 303.410645 191.7755 302.76144 190.208181 301.60601 189.052751 &#xA;C 300.45058 187.897321 298.88326 187.248116 297.249235 187.248116 &#xA;C 295.615211 187.248116 294.047891 187.897321 292.892461 189.052751 &#xA;C 291.737031 190.208181 291.087826 191.7755 291.087826 193.409525 &#xA;C 291.087826 195.04355 291.737031 196.610869 292.892461 197.766299 &#xA;C 294.047891 198.921729 295.615211 199.570934 297.249235 199.570934 &#xA;z&#xA;" style="fill:none;stroke:#808080;stroke-opacity:0.45;stroke-width:2.2;"/>
    <path clip-path="url(#p0c2a65cfad)" d="M 235.812751 226.895077 &#xA;C 237.075886 226.895077 238.287457 226.393228 239.180628 225.500057 &#xA;C 240.073799 224.606886 240.575648 223.395315 240.575648 222.13218 &#xA;C 240.575648 220.869045 240.073799 219.657475 239.180628 218.764304 &#xA;C 238.287457 217.871132 237.075886 217.369284 235.812751 217.369284 &#xA;C 234.549616 217.369284 233.338046 217.871132 232.444875 218.764304 &#xA;C 231.551704 219.657475 231.049855 220.869045 231.049855 222.13218 &#xA;C 231.049855 223.395315 231.551704 224.606886 232.444875 225.500057 &#xA;C 233.338046 226.393228 234.549616 226.895077 235.812751 226.895077 &#xA;z&#xA;" style="fill:none;stroke:#808080;stroke-opacity:0.45;stroke-width:2.2;"/>
    <path clip-path="url(#p0c2a65cfad)" d="M 198.005684 255.617732 &#xA;C 199.268819 255.617732 200.48039 255.115883 201.373561 254.222712 &#xA;C 202.266732 253.329541 202.768581 252.117971 202.768581 250.854836 &#xA;C 202.768581 249.591701 202.266732 248.38013 201.373561 247.486959 &#xA;C 200.48039 246.593788 199.268819 246.091939 198.005684 246.091939 &#xA;C 196.742549 246.091939 195.530979 246.593788 194.637808 247.486959 &#xA;C 193.744636 248.38013 193.242788 249.591701 193.242788 250.854836 &#xA;C 193.242788 252.117971 193.744636 253.329541 194.637808 254.222712 &#xA;C 195.530979 255.115883 196.742549 255.617732 198.005684 255.617732 &#xA;z&#xA;" style="fill:none;stroke:#808080;stroke-opacity:0.45;stroke-width:2.2;"/>
    <path clip-path="url(#p0c2a65cfad)" d="M 196.551566 283.771843 &#xA;C 197.663922 283.771843 198.730867 283.3299 199.517421 282.543346 &#xA;C 200.303975 281.756792 200.745919 280.689846 200.745919 279.577491 &#xA;C 200.745919 278.465136 200.303975 277.39819 199.517421 276.611636 &#xA;C 198.730867 275.825082 197.663922 275.383138 196.551566 275.383138 &#xA;C 195.439211 275.383138 194.372265 275.825082 193.585711 276.611636 &#xA;C 192.799157 277.39819 192.357214 278.465136 192.357214 279.577491 &#xA;C 192.357214 280.689846 192.799157 281.756792 193.585711 282.543346 &#xA;C 194.372265 283.3299 195.439211 283.771843 196.551566 283.771843 &#xA;z&#xA;" style="fill:none;stroke:#808080;stroke-opacity:0.45;stroke-width:2.2;"/>
    <path clip-path="url(#p0c2a65cfad)" d="M 191.098624 311.83568 &#xA;C 192.036258 311.83568 192.935616 311.463154 193.598624 310.800146 &#xA;C 194.261632 310.137138 194.634158 309.237781 194.634158 308.300146 &#xA;C 194.634158 307.362511 194.261632 306.463154 193.598624 305.800146 &#xA;C 192.935616 305.137138 192.036258 304.764612 191.098624 304.764612 &#xA;C 190.160989 304.764612 189.261632 305.137138 188.598624 305.800146 &#xA;C 187.935616 306.463154 187.56309 307.362511 187.56309 308.300146 &#xA;C 187.56309 309.237781 187.935616 310.137138 188.598624 310.800146 &#xA;C 189.261632 311.463154 190.160989 311.83568 191.098624 311.83568 &#xA;z&#xA;" style="fill:none;stroke:#808080;stroke-opacity:0.45;stroke-width:2.2;"/>
   </g>
   <g id="text_17">
    <text style="font-family:Arial;font-size:11px;font-stretch:normal;font-style:normal;font-weight:normal;text-anchor:middle;" transform="rotate(-0, 359.776308, 15.073594)" x="359.776308" y="15.073594">Reactome Pathways enrichment</text>
   </g>
   <g id="line2d_31">
    <path clip-path="url(#p0c2a65cfad)" d="M 528.453992 41.125199 &#xA;L 528.453992 58.467299 &#xA;" style="fill:none;stroke:#808080;stroke-dasharray:1.85,0.8;stroke-dashoffset:0;stroke-width:0.5;"/>
   </g>
   <g id="line2d_32">
    <path clip-path="url(#p0c2a65cfad)" d="M 475.378686 72.937135 &#xA;L 475.378686 84.100674 &#xA;" style="fill:none;stroke:#808080;stroke-dasharray:1.85,0.8;stroke-dashoffset:0;stroke-width:0.5;"/>
   </g>
   <g id="line2d_33">
    <path clip-path="url(#p0c2a65cfad)" d="M 384.496313 103.204431 &#xA;L 384.496313 111.278688 &#xA;" style="fill:none;stroke:#808080;stroke-dasharray:1.85,0.8;stroke-dashoffset:0;stroke-width:0.5;"/>
   </g>
   <g id="line2d_34">
    <path clip-path="url(#p0c2a65cfad)" d="M 305.610414 124.590043 &#xA;L 305.610414 147.338386 &#xA;" style="fill:none;stroke:#808080;stroke-dasharray:1.85,0.8;stroke-dashoffset:0;stroke-width:0.5;"/>
   </g>
   <g id="line2d_35">
    <path clip-path="url(#p0c2a65cfad)" d="M 297.249235 161.808222 &#xA;L 297.249235 167.565518 &#xA;" style="fill:none;stroke:#808080;stroke-dasharray:1.85,0.8;stroke-dashoffset:0;stroke-width:0.5;"/>
   </g>
   <g id="line2d_36">
    <path clip-path="url(#p0c2a65cfad)" d="M 297.249235 190.530877 &#xA;L 297.249235 196.288173 &#xA;" style="fill:none;stroke:#808080;stroke-dasharray:1.85,0.8;stroke-dashoffset:0;stroke-width:0.5;"/>
   </g>
   <g id="line2d_37">
    <path clip-path="url(#p0c2a65cfad)" d="M 235.812751 220.412012 &#xA;L 235.812751 223.852348 &#xA;" style="fill:none;stroke:#808080;stroke-dasharray:1.85,0.8;stroke-dashoffset:0;stroke-width:0.5;"/>
   </g>
   <g id="line2d_38">
    <path clip-path="url(#p0c2a65cfad)" d="M 198.005684 249.134668 &#xA;L 198.005684 252.575003 &#xA;" style="fill:none;stroke:#808080;stroke-dasharray:1.85,0.8;stroke-dashoffset:0;stroke-width:0.5;"/>
   </g>
   <g id="line2d_39">
    <path clip-path="url(#p0c2a65cfad)" d="M 196.551566 278.243483 &#xA;L 196.551566 280.911499 &#xA;" style="fill:none;stroke:#808080;stroke-dasharray:1.85,0.8;stroke-dashoffset:0;stroke-width:0.5;"/>
   </g>
   <g id="line2d_40">
    <path clip-path="url(#p0c2a65cfad)" d="M 191.098624 307.352298 &#xA;L 191.098624 309.247994 &#xA;" style="fill:none;stroke:#808080;stroke-dasharray:1.85,0.8;stroke-dashoffset:0;stroke-width:0.5;"/>
   </g>
   <g id="invisibleRectangle_RCTM:HSA-194306" style="cursor: pointer;">
    <path clip-path="url(#p0c2a65cfad)" d="M 171.1475 294.513272 &#xA;L 548.405116 294.513272 &#xA;L 548.405116 320.363661 &#xA;L 171.1475 320.363661 &#xA;z&#xA;" style="fill:#ffffff;opacity:0.01;"/>
   </g>
   <g id="invisibleRectangle_RCTM:HSA-416572" style="cursor: pointer;">
    <path clip-path="url(#p0c2a65cfad)" d="M 171.1475 265.790616 &#xA;L 548.405116 265.790616 &#xA;L 548.405116 291.641006 &#xA;L 171.1475 291.641006 &#xA;z&#xA;" style="fill:#ffffff;opacity:0.01;"/>
   </g>
   <g id="invisibleRectangle_RCTM:HSA-9013405" style="cursor: pointer;">
    <path clip-path="url(#p0c2a65cfad)" d="M 171.1475 237.067961 &#xA;L 548.405116 237.067961 &#xA;L 548.405116 262.918351 &#xA;L 171.1475 262.918351 &#xA;z&#xA;" style="fill:#ffffff;opacity:0.01;"/>
   </g>
   <g id="invisibleRectangle_RCTM:HSA-416550" style="cursor: pointer;">
    <path clip-path="url(#p0c2a65cfad)" d="M 171.1475 208.345306 &#xA;L 548.405116 208.345306 &#xA;L 548.405116 234.195696 &#xA;L 171.1475 234.195696 &#xA;z&#xA;" style="fill:#ffffff;opacity:0.01;"/>
   </g>
   <g id="invisibleRectangle_RCTM:HSA-399954" style="cursor: pointer;">
    <path clip-path="url(#p0c2a65cfad)" d="M 171.1475 179.622651 &#xA;L 548.405116 179.622651 &#xA;L 548.405116 205.47304 &#xA;L 171.1475 205.47304 &#xA;z&#xA;" style="fill:#ffffff;opacity:0.01;"/>
   </g>
   <g id="invisibleRectangle_RCTM:HSA-399956" style="cursor: pointer;">
    <path clip-path="url(#p0c2a65cfad)" d="M 171.1475 150.899995 &#xA;L 548.405116 150.899995 &#xA;L 548.405116 176.750385 &#xA;L 171.1475 176.750385 &#xA;z&#xA;" style="fill:#ffffff;opacity:0.01;"/>
   </g>
   <g id="invisibleRectangle_RCTM:HSA-422475" style="cursor: pointer;">
    <path clip-path="url(#p0c2a65cfad)" d="M 171.1475 122.17734 &#xA;L 548.405116 122.17734 &#xA;L 548.405116 148.02773 &#xA;L 171.1475 148.02773 &#xA;z&#xA;" style="fill:#ffffff;opacity:0.01;"/>
   </g>
   <g id="invisibleRectangle_RCTM:HSA-399955" style="cursor: pointer;">
    <path clip-path="url(#p0c2a65cfad)" d="M 171.1475 93.454685 &#xA;L 548.405116 93.454685 &#xA;L 548.405116 119.305075 &#xA;L 171.1475 119.305075 &#xA;z&#xA;" style="fill:#ffffff;opacity:0.01;"/>
   </g>
   <g id="invisibleRectangle_RCTM:HSA-416700" style="cursor: pointer;">
    <path clip-path="url(#p0c2a65cfad)" d="M 171.1475 64.73203 &#xA;L 548.405116 64.73203 &#xA;L 548.405116 90.582419 &#xA;L 171.1475 90.582419 &#xA;z&#xA;" style="fill:#ffffff;opacity:0.01;"/>
   </g>
   <g id="invisibleRectangle_RCTM:HSA-373755" style="cursor: pointer;">
    <path clip-path="url(#p0c2a65cfad)" d="M 171.1475 36.009374 &#xA;L 548.405116 36.009374 &#xA;L 548.405116 61.859764 &#xA;L 171.1475 61.859764 &#xA;z&#xA;" style="fill:#ffffff;opacity:0.01;"/>
   </g>
  </g>
  <g id="axes_2">
   <g id="patch_12">
    <path d="M 554.885116 337.022801 &#xA;L 649.19952 337.022801 &#xA;L 649.19952 21.073594 &#xA;L 554.885116 21.073594 &#xA;z&#xA;" style="fill:none;"/>
   </g>
   <g id="patch_13">
    <path clip-path="url(#p7819102e97)" d="M 554.885116 320.507274 &#xA;L 566.674416 320.507274 &#xA;L 566.674416 294.369658 &#xA;L 554.885116 294.369658 &#xA;z&#xA;" style="fill:#234da0;"/>
   </g>
   <g id="patch_14">
    <path clip-path="url(#p7819102e97)" d="M 554.885116 291.784619 &#xA;L 566.674416 291.784619 &#xA;L 566.674416 265.647003 &#xA;L 554.885116 265.647003 &#xA;z&#xA;" style="fill:#234da0;"/>
   </g>
   <g id="patch_15">
    <path clip-path="url(#p7819102e97)" d="M 554.885116 263.061964 &#xA;L 566.674416 263.061964 &#xA;L 566.674416 236.924348 &#xA;L 554.885116 236.924348 &#xA;z&#xA;" style="fill:#234da0;"/>
   </g>
   <g id="patch_16">
    <path clip-path="url(#p7819102e97)" d="M 554.885116 234.339309 &#xA;L 566.674416 234.339309 &#xA;L 566.674416 208.201693 &#xA;L 554.885116 208.201693 &#xA;z&#xA;" style="fill:#1f7ab5;"/>
   </g>
   <g id="patch_17">
    <path clip-path="url(#p7819102e97)" d="M 554.885116 205.616654 &#xA;L 566.674416 205.616654 &#xA;L 566.674416 150.756382 &#xA;L 554.885116 150.756382 &#xA;z&#xA;" style="fill:#1f7ab5;"/>
   </g>
   <g id="patch_18">
    <path clip-path="url(#p7819102e97)" d="M 554.885116 148.171343 &#xA;L 566.674416 148.171343 &#xA;L 566.674416 122.033727 &#xA;L 554.885116 122.033727 &#xA;z&#xA;" style="fill:#a0dab8;"/>
   </g>
   <g id="patch_19">
    <path clip-path="url(#p7819102e97)" d="M 554.885116 119.448688 &#xA;L 566.674416 119.448688 &#xA;L 566.674416 93.311072 &#xA;L 554.885116 93.311072 &#xA;z&#xA;" style="fill:#2fa4c2;"/>
   </g>
   <g id="patch_20">
    <path clip-path="url(#p7819102e97)" d="M 554.885116 90.726033 &#xA;L 566.674416 90.726033 &#xA;L 566.674416 64.588416 &#xA;L 554.885116 64.588416 &#xA;z&#xA;" style="fill:#5fc1c0;"/>
   </g>
   <g id="patch_21">
    <path clip-path="url(#p7819102e97)" d="M 554.885116 62.003377 &#xA;L 566.674416 62.003377 &#xA;L 566.674416 35.865761 &#xA;L 554.885116 35.865761 &#xA;z&#xA;" style="fill:#d6efb3;"/>
   </g>
   <g id="matplotlib.axis_3"/>
   <g id="matplotlib.axis_4"/>
   <g id="text_18">
    <text style="font-family:Arial;font-size:9px;font-stretch:normal;font-style:normal;font-weight:normal;" transform="translate(580.792467 222.334797)rotate(-90)">Groups at similarity 0.8</text>
   </g>
  </g>
  <g id="axes_3">
   <g id="patch_22">
    <path d="M 587.39976 130.19976 &#xA;L 652.19976 130.19976 &#xA;L 652.19976 22.19976 &#xA;L 587.39976 22.19976 &#xA;z&#xA;" style="fill:none;"/>
   </g>
   <g id="PathCollection_2">
    <defs>
     <path d="M -70.710678 70.710678 &#xA;L 70.710678 70.710678 &#xA;L 70.710678 -70.710678 &#xA;L -70.710678 -70.710678 &#xA;z&#xA;" id="mbe675b9a18" style="stroke:#ffffff;stroke-opacity:0.6;"/>
    </defs>
    <g clip-path="url(#p68448a4c05)">
     <use style="fill:#ffffff;fill-opacity:0.6;stroke:#ffffff;stroke-opacity:0.6;" x="619.79976" xlink:href="#mbe675b9a18" y="76.19976"/>
    </g>
   </g>
   <g id="matplotlib.axis_5">
    <g id="xtick_6"/>
    <g id="xtick_7"/>
    <g id="xtick_8"/>
   </g>
   <g id="matplotlib.axis_6">
    <g id="ytick_11"/>
    <g id="ytick_12"/>
    <g id="ytick_13"/>
    <g id="ytick_14"/>
    <g id="ytick_15"/>
   </g>
  </g>
  <g id="axes_4">
   <g id="patch_23">
    <path d="M 593.87976 126.59976 &#xA;L 604.67976 126.59976 &#xA;L 604.67976 40.19976 &#xA;L 593.87976 40.19976 &#xA;z&#xA;" style="fill:none;"/>
   </g>
   <g id="patch_24">
    <path clip-path="url(#p947509693b)" d="M 593.87976 40.19976 &#xA;L 593.87976 54.59976 &#xA;L 593.87976 112.19976 &#xA;L 593.87976 126.59976 &#xA;L 604.67976 126.59976 &#xA;L 604.67976 112.19976 &#xA;L 604.67976 54.59976 &#xA;L 604.67976 40.19976 &#xA;L 604.67976 40.19976 &#xA;z&#xA;" style="fill:#ffffff;stroke:#ffffff;stroke-linejoin:miter;stroke-width:0.01;"/>
   </g>
   <g id="QuadMesh_1">
    <path clip-path="url(#p947509693b)" d="M 593.87976 40.19976 &#xA;L 604.67976 40.19976 &#xA;L 604.67976 54.59976 &#xA;L 593.87976 54.59976 &#xA;L 593.87976 40.19976 &#xA;" style="fill:#d6efb3;"/>
    <path clip-path="url(#p947509693b)" d="M 593.87976 54.59976 &#xA;L 604.67976 54.59976 &#xA;L 604.67976 68.99976 &#xA;L 593.87976 68.99976 &#xA;L 593.87976 54.59976 &#xA;" style="fill:#a0dab8;"/>
    <path clip-path="url(#p947509693b)" d="M 593.87976 68.99976 &#xA;L 604.67976 68.99976 &#xA;L 604.67976 83.39976 &#xA;L 593.87976 83.39976 &#xA;L 593.87976 68.99976 &#xA;" style="fill:#5fc1c0;"/>
    <path clip-path="url(#p947509693b)" d="M 593.87976 83.39976 &#xA;L 604.67976 83.39976 &#xA;L 604.67976 97.79976 &#xA;L 593.87976 97.79976 &#xA;L 593.87976 83.39976 &#xA;" style="fill:#2fa4c2;"/>
    <path clip-path="url(#p947509693b)" d="M 593.87976 97.79976 &#xA;L 604.67976 97.79976 &#xA;L 604.67976 112.19976 &#xA;L 593.87976 112.19976 &#xA;L 593.87976 97.79976 &#xA;" style="fill:#1f7ab5;"/>
    <path clip-path="url(#p947509693b)" d="M 593.87976 112.19976 &#xA;L 604.67976 112.19976 &#xA;L 604.67976 126.59976 &#xA;L 593.87976 126.59976 &#xA;L 593.87976 112.19976 &#xA;" style="fill:#234da0;"/>
   </g>
   <g id="matplotlib.axis_7"/>
   <g id="matplotlib.axis_8">
    <g id="ytick_16">
     <g id="line2d_41">
      <defs>
       <path d="M 0 0 &#xA;L 3.5 0 &#xA;" id="m2b288758ae" style="stroke:#000000;stroke-width:0.8;"/>
      </defs>
      <g>
       <use style="stroke:#000000;stroke-width:0.8;" x="604.67976" xlink:href="#m2b288758ae" y="119.39976"/>
      </g>
     </g>
     <g id="text_19">
      <text style="font-family:Arial;font-size:9px;font-stretch:normal;font-style:normal;font-weight:normal;text-anchor:start;" transform="rotate(-0, 611.67976, 122.620776)" x="611.67976" y="122.620776">1.0e-02</text>
     </g>
    </g>
    <g id="ytick_17">
     <g id="line2d_42">
      <g>
       <use style="stroke:#000000;stroke-width:0.8;" x="604.67976" xlink:href="#m2b288758ae" y="104.99976"/>
      </g>
     </g>
     <g id="text_20">
      <text style="font-family:Arial;font-size:9px;font-stretch:normal;font-style:normal;font-weight:normal;text-anchor:start;" transform="rotate(-0, 611.67976, 108.220776)" x="611.67976" y="108.220776">1.0e-09</text>
     </g>
    </g>
    <g id="ytick_18">
     <g id="line2d_43">
      <g>
       <use style="stroke:#000000;stroke-width:0.8;" x="604.67976" xlink:href="#m2b288758ae" y="90.59976"/>
      </g>
     </g>
     <g id="text_21">
      <text style="font-family:Arial;font-size:9px;font-stretch:normal;font-style:normal;font-weight:normal;text-anchor:start;" transform="rotate(-0, 611.67976, 93.820776)" x="611.67976" y="93.820776">1.0e-16</text>
     </g>
    </g>
    <g id="ytick_19">
     <g id="line2d_44">
      <g>
       <use style="stroke:#000000;stroke-width:0.8;" x="604.67976" xlink:href="#m2b288758ae" y="76.19976"/>
      </g>
     </g>
     <g id="text_22">
      <text style="font-family:Arial;font-size:9px;font-stretch:normal;font-style:normal;font-weight:normal;text-anchor:start;" transform="rotate(-0, 611.67976, 79.420776)" x="611.67976" y="79.420776">1.0e-23</text>
     </g>
    </g>
    <g id="ytick_20">
     <g id="line2d_45">
      <g>
       <use style="stroke:#000000;stroke-width:0.8;" x="604.67976" xlink:href="#m2b288758ae" y="61.79976"/>
      </g>
     </g>
     <g id="text_23">
      <text style="font-family:Arial;font-size:9px;font-stretch:normal;font-style:normal;font-weight:normal;text-anchor:start;" transform="rotate(-0, 611.67976, 65.020776)" x="611.67976" y="65.020776">1.0e-30</text>
     </g>
    </g>
    <g id="ytick_21">
     <g id="line2d_46">
      <g>
       <use style="stroke:#000000;stroke-width:0.8;" x="604.67976" xlink:href="#m2b288758ae" y="47.39976"/>
      </g>
     </g>
     <g id="text_24">
      <text style="font-family:Arial;font-size:9px;font-stretch:normal;font-style:normal;font-weight:normal;text-anchor:start;" transform="rotate(-0, 611.67976, 50.620776)" x="611.67976" y="50.620776">1.0e-37</text>
     </g>
    </g>
   </g>
   <g id="LineCollection_1"/>
   <g id="patch_25">
    <path d="M 593.87976 40.19976 &#xA;L 593.87976 54.59976 &#xA;L 593.87976 112.19976 &#xA;L 593.87976 126.59976 &#xA;L 604.67976 126.59976 &#xA;L 604.67976 112.19976 &#xA;L 604.67976 54.59976 &#xA;L 604.67976 40.19976 &#xA;z&#xA;" style="fill:none;"/>
   </g>
   <g id="text_25">
    <text style="font-family:Arial;font-size:9px;font-stretch:normal;font-style:normal;font-weight:normal;text-anchor:middle;" transform="rotate(-0, 599.27976, 34.19976)" x="599.27976" y="34.19976">FDR</text>
   </g>
  </g>
  <g id="axes_5">
   <g id="patch_26">
    <path d="M 587.39976 261.87336 &#xA;L 648.95976 261.87336 &#xA;L 648.95976 136.87848 &#xA;L 587.39976 136.87848 &#xA;z&#xA;" style="fill:none;"/>
   </g>
   <g id="PathCollection_3">
    <g clip-path="url(#p4de3f958c0)">
     <use style="fill:#ffffff;fill-opacity:0.6;stroke:#ffffff;stroke-opacity:0.6;" x="618.17976" xlink:href="#mbe675b9a18" y="199.37592"/>
    </g>
   </g>
   <g id="matplotlib.axis_9">
    <g id="xtick_9"/>
    <g id="xtick_10"/>
    <g id="xtick_11"/>
   </g>
   <g id="matplotlib.axis_10">
    <g id="ytick_22"/>
    <g id="ytick_23"/>
    <g id="ytick_24"/>
    <g id="ytick_25"/>
    <g id="ytick_26"/>
   </g>
  </g>
  <g id="axes_6">
   <g id="PathCollection_4">
    <defs>
     <path d="M 0 3.535534 &#xA;C 0.937635 3.535534 1.836992 3.163008 2.5 2.5 &#xA;C 3.163008 1.836992 3.535534 0.937635 3.535534 0 &#xA;C 3.535534 -0.937635 3.163008 -1.836992 2.5 -2.5 &#xA;C 1.836992 -3.163008 0.937635 -3.535534 0 -3.535534 &#xA;C -0.937635 -3.535534 -1.836992 -3.163008 -2.5 -2.5 &#xA;C -3.163008 -1.836992 -3.535534 -0.937635 -3.535534 0 &#xA;C -3.535534 0.937635 -3.163008 1.836992 -2.5 2.5 &#xA;C -1.836992 3.163008 -0.937635 3.535534 0 3.535534 &#xA;z&#xA;" id="ma39be81e13" style="stroke:#b5c2a4;stroke-width:2.2;"/>
    </defs>
    <g clip-path="url(#p75d647e25d)">
     <use style="fill:#d6efb3;stroke:#b5c2a4;stroke-width:2.2;" x="610.07976" xlink:href="#ma39be81e13" y="166.288375"/>
    </g>
   </g>
   <g id="PathCollection_5">
    <defs>
     <path d="M 0 7.296625 &#xA;C 1.935088 7.296625 3.79118 6.527807 5.159493 5.159493 &#xA;C 6.527807 3.79118 7.296625 1.935088 7.296625 0 &#xA;C 7.296625 -1.935088 6.527807 -3.79118 5.159493 -5.159493 &#xA;C 3.79118 -6.527807 1.935088 -7.296625 0 -7.296625 &#xA;C -1.935088 -7.296625 -3.79118 -6.527807 -5.159493 -5.159493 &#xA;C -6.527807 -3.79118 -7.296625 -1.935088 -7.296625 0 &#xA;C -7.296625 1.935088 -6.527807 3.79118 -5.159493 5.159493 &#xA;C -3.79118 6.527807 -1.935088 7.296625 0 7.296625 &#xA;z&#xA;" id="m8682cb767d" style="stroke:#b5c2a4;stroke-width:2.2;"/>
    </defs>
    <g clip-path="url(#p75d647e25d)">
     <use style="fill:#d6efb3;stroke:#b5c2a4;stroke-width:2.2;" x="610.07976" xlink:href="#m8682cb767d" y="185.24318"/>
    </g>
   </g>
   <g id="PathCollection_6">
    <defs>
     <path d="M 0 10.206207 &#xA;C 2.706718 10.206207 5.30294 9.130817 7.216878 7.216878 &#xA;C 9.130817 5.30294 10.206207 2.706718 10.206207 0 &#xA;C 10.206207 -2.706718 9.130817 -5.30294 7.216878 -7.216878 &#xA;C 5.30294 -9.130817 2.706718 -10.206207 0 -10.206207 &#xA;C -2.706718 -10.206207 -5.30294 -9.130817 -7.216878 -7.216878 &#xA;C -9.130817 -5.30294 -10.206207 -2.706718 -10.206207 0 &#xA;C -10.206207 2.706718 -9.130817 5.30294 -7.216878 7.216878 &#xA;C -5.30294 9.130817 -2.706718 10.206207 0 10.206207 &#xA;z&#xA;" id="mdb957deba4" style="stroke:#b5c2a4;stroke-width:2.2;"/>
    </defs>
    <g clip-path="url(#p75d647e25d)">
     <use style="fill:#d6efb3;stroke:#b5c2a4;stroke-width:2.2;" x="610.07976" xlink:href="#mdb957deba4" y="211.044961"/>
    </g>
   </g>
   <g id="PathCollection_7">
    <defs>
     <path d="M 0 12.453618 &#xA;C 3.302738 12.453618 6.470649 11.141426 8.806037 8.806037 &#xA;C 11.141426 6.470649 12.453618 3.302738 12.453618 0 &#xA;C 12.453618 -3.302738 11.141426 -6.470649 8.806037 -8.806037 &#xA;C 6.470649 -11.141426 3.302738 -12.453618 0 -12.453618 &#xA;C -3.302738 -12.453618 -6.470649 -11.141426 -8.806037 -8.806037 &#xA;C -11.141426 -6.470649 -12.453618 -3.302738 -12.453618 0 &#xA;C -12.453618 3.302738 -11.141426 6.470649 -8.806037 8.806037 &#xA;C -6.470649 11.141426 -3.302738 12.453618 0 12.453618 &#xA;z&#xA;" id="mcdbd95bec0" style="stroke:#b5c2a4;stroke-width:2.2;"/>
    </defs>
    <g clip-path="url(#p75d647e25d)">
     <use style="fill:#d6efb3;stroke:#b5c2a4;stroke-width:2.2;" x="610.07976" xlink:href="#mcdbd95bec0" y="241.755461"/>
    </g>
   </g>
   <g id="text_26">
    <text style="font-family:Arial;font-size:9px;font-stretch:normal;font-style:normal;font-weight:normal;text-anchor:start;" transform="rotate(-0, 626.27976, 169.744862)" x="626.27976" y="169.744862">2</text>
   </g>
   <g id="text_27">
    <text style="font-family:Arial;font-size:9px;font-stretch:normal;font-style:normal;font-weight:normal;text-anchor:start;" transform="rotate(-0, 626.27976, 188.699666)" x="626.27976" y="188.699666">10</text>
   </g>
   <g id="text_28">
    <text style="font-family:Arial;font-size:9px;font-stretch:normal;font-style:normal;font-weight:normal;text-anchor:start;" transform="rotate(-0, 626.27976, 214.501447)" x="626.27976" y="214.501447">20</text>
   </g>
   <g id="text_29">
    <text style="font-family:Arial;font-size:9px;font-stretch:normal;font-style:normal;font-weight:normal;text-anchor:start;" transform="rotate(-0, 626.27976, 245.211948)" x="626.27976" y="245.211948">30</text>
   </g>
   <g id="text_30">
    <text style="font-family:Arial;font-size:9px;font-stretch:normal;font-style:normal;font-weight:normal;text-anchor:middle;" transform="rotate(-0, 616.55976, 150.11976)" x="616.55976" y="150.11976">Gene count</text>
   </g>
  </g>
 </g>
 <defs>
  <clipPath id="p0c2a65cfad">
   <rect height="315.949207" width="377.257616" x="171.1475" y="21.073594"/>
  </clipPath>
  <clipPath id="p7819102e97">
   <rect height="315.949207" width="94.314404" x="554.885116" y="21.073594"/>
  </clipPath>
  <clipPath id="p68448a4c05">
   <rect height="108" width="64.8" x="587.39976" y="22.19976"/>
  </clipPath>
  <clipPath id="p947509693b">
   <rect height="86.4" width="10.8" x="593.87976" y="40.19976"/>
  </clipPath>
  <clipPath id="p4de3f958c0">
   <rect height="124.99488" width="61.56" x="587.39976" y="136.87848"/>
  </clipPath>
  <clipPath id="p75d647e25d">
   <rect height="146.88" width="32.4" x="593.87976" y="156.11976"/>
  </clipPath>
 </defs>
</svg>